g Object97
v -0.96519834 0.36582762 -0.029541072
v -0.49984986 0.3393103 -0.029541072
v -0.96519834 -0.20966293 -0.029541072
v -0.11800232 -0.00010978698 -0.029541072
v 0.034801636 -0.20966293 -0.029541072
v 0.034801636 -0.04253746 -0.029541072
v -0.96519834 0.36582762 -0.029541072
v -0.49984986 0.3393103 -0.21017894
v -0.49984986 0.3393103 -0.029541072
v -0.96519834 0.36582762 -0.21017894
v -0.49984986 0.3393103 -0.029541072
v -0.11800232 -0.00010978698 -0.21017894
v -0.11800232 -0.00010978698 -0.029541072
v -0.49984986 0.3393103 -0.21017894
v -0.96519834 -0.20966293 -0.029541072
v -0.96519834 0.36582762 -0.21017894
v -0.96519834 0.36582762 -0.029541072
v -0.96519834 -0.20966293 -0.21017894
v -0.11800232 -0.00010978698 -0.029541072
v 0.034801636 -0.04253746 -0.21017894
v 0.034801636 -0.04253746 -0.029541072
v -0.11800232 -0.00010978698 -0.21017894
v 0.034801636 -0.20966293 -0.029541072
v -0.96519834 -0.20966293 -0.21017894
v -0.96519834 -0.20966293 -0.029541072
v 0.034801636 -0.20966293 -0.21017894
v 0.034801636 -0.04253746 -0.029541072
v 0.034801636 -0.20966293 -0.21017894
v 0.034801636 -0.20966293 -0.029541072
v 0.034801636 -0.04253746 -0.21017894
vt 0.70000005 0.45754907
vt 0.74653494 0.45489734
vt 0.70000005 0.4
vt 0.7847197 0.4209553
vt 0.8000001 0.4
vt 0.8000001 0.41671255
vt 0.70000005 0.45754907
vt 0.74653494 0.45489734
vt 0.74653494 0.45489734
vt 0.70000005 0.45754907
vt 0.74653494 0.45489734
vt 0.7847197 0.4209553
vt 0.7847197 0.4209553
vt 0.74653494 0.45489734
vt 0.70000005 0.4
vt 0.70000005 0.45754907
vt 0.70000005 0.45754907
vt 0.70000005 0.4
vt 0.7847197 0.4209553
vt 0.8000001 0.41671255
vt 0.8000001 0.41671255
vt 0.7847197 0.4209553
vt 0.8000001 0.4
vt 0.70000005 0.4
vt 0.70000005 0.4
vt 0.8000001 0.4
vt 0.8000001 0.41671255
vt 0.8000001 0.4
vt 0.8000001 0.4
vt 0.8000001 0.41671255
vn -0 0 1
vn -0 0 1
vn -0 0 1
vn -0 0 1
vn -0 0 1
vn -0 0 1
vn 0.056891527 0.9983804 0
vn 0.05689153 0.9983804 0
vn 0.05689152 0.9983804 0
vn 0.05689152 0.9983804 0
vn 0.66436386 0.7474093 0
vn 0.66436386 0.7474093 0
vn 0.6643638 0.7474093 0
vn 0.6643638 0.7474093 0
vn -1 0 0
vn -1 0 0
vn -1 0 0
vn -1 0 0
vn 0.2675393 0.96354693 0
vn 0.26753926 0.96354693 0
vn 0.2675393 0.96354693 0
vn 0.2675393 0.96354693 0
vn -0 -1 0
vn -0 -1 0
vn -0 -1 0
vn -0 -1 0
vn 1 0 0
vn 1 0 0
vn 1 0 0
vn 1 0 0
g Object97_0
f 3/3/3 2/2/2 1/1/1
f 4/4/4 2/2/2 3/3/3
f 3/3/3 5/5/5 4/4/4
f 6/6/6 4/4/4 5/5/5
f 9/9/9 8/8/8 7/7/7
f 10/10/10 7/7/7 8/8/8
f 13/13/13 12/12/12 11/11/11
f 14/14/14 11/11/11 12/12/12
f 17/17/17 16/16/16 15/15/15
f 18/18/18 15/15/15 16/16/16
f 21/21/21 20/20/20 19/19/19
f 22/22/22 19/19/19 20/20/20
f 25/25/25 24/24/24 23/23/23
f 26/26/26 23/23/23 24/24/24
f 29/29/29 28/28/28 27/27/27
f 30/30/30 27/27/27 28/28/28
