g Plane003
v 0.54991555 -0.13223769 0.009721955
v 0.54573995 0.13223782 0.06869925
v 0.54991555 0.13223784 0.009721997
v 0.54573995 -0.1322377 0.0686992
v 0.53550965 0.1322378 0.12581067
v 0.53550965 -0.13223772 0.12581062
v 0.51955116 0.13223785 0.18072985
v 0.51955116 -0.13223772 0.1807298
v 0.4981903 0.13223775 0.23313048
v 0.4981903 -0.13223772 0.23313041
v 0.47175372 0.13223773 0.28268635
v 0.47175372 -0.13223773 0.2826863
v 0.44056758 0.13223773 0.32907116
v 0.44056758 -0.13223763 0.3290711
v 0.4049583 0.13223772 0.3719586
v 0.4049583 -0.13223764 0.37195855
v 0.36525196 0.13223772 0.41102248
v 0.36525196 -0.13223776 0.41102248
v 0.32177496 0.13223772 0.44593635
v 0.32177496 -0.13223776 0.44593638
v 0.27485347 0.13223776 0.47637406
v 0.27485347 -0.13223776 0.47637412
v 0.22481398 0.13223775 0.50200945
v 0.22481398 -0.13223778 0.5020095
v 0.17198247 0.13223775 0.52251583
v 0.17198247 -0.13223778 0.5225159
v 0.1166855 0.13223775 0.53756726
v 0.1166855 -0.13223778 0.5375673
v 0.0592492 0.13223775 0.54683745
v 0.0592492 -0.13223778 0.5468375
v -1.3257502E-07 0.13223775 0.55
v -1.3257502E-07 -0.13223778 0.5500001
v -0.059249345 0.13223775 0.5468374
v -0.059249345 -0.13223778 0.54683745
v -0.116685666 0.13223775 0.53756726
v -0.116685666 -0.13223778 0.5375673
v -0.17198269 0.13223775 0.5225157
v -0.17198269 -0.13223778 0.5225158
v -0.2248141 0.13223775 0.5020092
v -0.2248141 -0.13223778 0.5020093
v -0.27485362 0.13223776 0.47637403
v -0.27485362 -0.13223776 0.47637406
v -0.32177508 0.13223772 0.4459363
v -0.32177508 -0.13223776 0.44593635
v -0.3652521 0.13223772 0.41102234
v -0.3652521 -0.13223776 0.41102234
v -0.40495837 0.13223772 0.37195855
v -0.40495837 -0.13223775 0.3719585
v -0.44056776 0.13223773 0.32907107
v -0.44056776 -0.13223763 0.329071
v -0.47175387 0.13223773 0.2826862
v -0.47175387 -0.13223773 0.28268614
v -0.4981903 0.13223775 0.2331304
v -0.4981903 -0.13223772 0.23313032
v -0.5195511 0.13223785 0.18072972
v -0.5195511 -0.13223772 0.18072966
v -0.5355098 0.1322378 0.12581052
v -0.5355098 -0.13223772 0.12581046
v -0.54574 0.13223782 0.0686992
v -0.54574 -0.1322377 0.06869915
v -0.5499156 0.13223784 0.00972184
v -0.5499156 -0.13223769 0.009721799
v 0.6821334 -1.9583535E-09 0.012020287
v 0.414522 -8.522105E-09 0.052308306
v 0.41769782 -1.2094578E-09 0.007423599
v 0.67695796 -1.386294E-08 0.08509011
v 0.4067648 -1.5578273E-08 0.09561876
v 0.66425467 -2.5416032E-08 0.15600248
v 0.39467528 -2.2356465E-08 0.13722299
v 0.64442694 -3.653278E-08 0.22423658
v 0.37848285 -2.8827788E-08 0.1769437
v 0.6178978 -4.7135753E-08 0.28931716
v 0.35841376 -3.4956635E-08 0.21456228
v 0.5850937 4.3913577E-08 0.3508104
v 0.33470267 -4.0702187E-08 0.24982823
v 0.54643255 3.454504E-08 0.4083141
v 0.30759862 -4.6020475E-08 0.28247166
v 0.50231797 2.5888824E-08 0.46144557
v 0.27736545 -5.0866387E-08 0.31221563
v 0.45313838 1.8006105E-08 0.50982934
v 0.24427782 4.587247E-08 0.33878684
v 0.39927202 1.0958725E-08 0.55308586
v 0.20861219 4.210302E-08 0.36192355
v 0.34109476 4.8103037E-09 0.5908246
v 0.17063633 3.8933255E-08 0.38137943
v 0.27899158 -3.7299142E-10 0.6226394
v 0.1305961 3.6401172E-08 0.39692125
v 0.21336883 -4.522723E-09 0.6481103
v 0.08870421 3.4543454E-08 0.40832382
v 0.1446668 -7.569408E-09 0.66681075
v 0.045130596 3.339784E-08 0.41535556
v 0.07336779 -9.4444035E-09 0.67831933
v -1.1146532E-07 3.3005744E-08 0.41776225
v -1.5368472E-07 -1.0082792E-08 0.68223774
v -0.045130704 3.339785E-08 0.4153555
v -0.07336797 -9.444392E-09 0.6783193
v -0.08870433 3.4543454E-08 0.40832382
v -0.14466698 -7.569408E-09 0.66681075
v -0.1305963 3.6401172E-08 0.39692125
v -0.213369 -4.5227346E-09 0.6481104
v -0.17063645 3.8933276E-08 0.38137928
v -0.2789917 -3.7297987E-10 0.62263936
v -0.2086123 4.210302E-08 0.36192355
v -0.34109494 4.810321E-09 0.5908245
v -0.24427791 4.587248E-08 0.33878678
v -0.39927223 1.0958731E-08 0.5530858
v -0.27736557 -5.086637E-08 0.31221554
v -0.45313865 1.8006139E-08 0.50982916
v -0.30759865 -4.602047E-08 0.2824716
v -0.5023181 2.5888841E-08 0.46144548
v -0.33470276 -4.0702172E-08 0.24982816
v -0.5464328 3.4545085E-08 0.40831384
v -0.35841393 -3.4956617E-08 0.21456216
v -0.58509386 4.3913616E-08 0.3508102
v -0.37848285 -2.8827783E-08 0.17694366
v -0.61789787 -4.7135735E-08 0.28931707
v -0.39467528 -2.235647E-08 0.13722304
v -0.64442706 -3.6532757E-08 0.22423646
v -0.40676472 -1.5578276E-08 0.09561878
v -0.6642547 -2.5416E-08 0.15600228
v -0.41452193 -8.522107E-09 0.052308314
v -0.67695796 -1.3862929E-08 0.08509005
v -0.41769776 -1.2095116E-09 0.007423929
v -0.6821334 -1.9582769E-09 0.012019818
vt 0 0
vt 1 0.033333335
vt 1 0
vt 0 0.033333335
vt 1 0.06666667
vt 0 0.06666667
vt 1 0.10000001
vt 0 0.10000001
vt 1 0.13333334
vt 0 0.13333334
vt 1 0.16666667
vt 0 0.16666667
vt 1 0.2
vt 0 0.2
vt 1 0.23333333
vt 0 0.23333333
vt 1 0.26666668
vt 0 0.26666668
vt 1 0.3
vt 0 0.3
vt 1 0.33333334
vt 0 0.33333334
vt 1 0.36666667
vt 0 0.36666667
vt 1 0.4
vt 0 0.4
vt 1 0.43333334
vt 0 0.43333334
vt 1 0.46666667
vt 0 0.46666667
vt 1 0.5
vt 0 0.5
vt 1 0.53333336
vt 0 0.53333336
vt 1 0.5666667
vt 0 0.5666667
vt 1 0.6000001
vt 0 0.6000001
vt 1 0.63333344
vt 0 0.63333344
vt 1 0.6666668
vt 0 0.6666668
vt 1 0.70000017
vt 0 0.70000017
vt 1 0.7333335
vt 0 0.7333335
vt 1 0.7666669
vt 0 0.7666669
vt 1 0.80000025
vt 0 0.80000025
vt 1 0.8333336
vt 0 0.8333336
vt 1 0.866667
vt 0 0.866667
vt 1 0.90000033
vt 0 0.90000033
vt 1 0.9333337
vt 0 0.9333337
vt 1 0.96666706
vt 0 0.96666706
vt 1 1.0000004
vt 0 1.0000004
vt 0 0
vt 1 0.033333335
vt 1 0
vt 0 0.033333335
vt 1 0.06666667
vt 0 0.06666667
vt 1 0.10000001
vt 0 0.10000001
vt 1 0.13333334
vt 0 0.13333334
vt 1 0.16666667
vt 0 0.16666667
vt 1 0.2
vt 0 0.2
vt 1 0.23333333
vt 0 0.23333333
vt 1 0.26666668
vt 0 0.26666668
vt 1 0.3
vt 0 0.3
vt 1 0.33333334
vt 0 0.33333334
vt 1 0.36666667
vt 0 0.36666667
vt 1 0.4
vt 0 0.4
vt 1 0.43333334
vt 0 0.43333334
vt 1 0.46666667
vt 0 0.46666667
vt 1 0.5
vt 0 0.5
vt 1 0.53333336
vt 0 0.53333336
vt 1 0.5666667
vt 0 0.5666667
vt 1 0.6000001
vt 0 0.6000001
vt 1 0.63333344
vt 0 0.63333344
vt 1 0.6666668
vt 0 0.6666668
vt 1 0.70000017
vt 0 0.70000017
vt 1 0.7333335
vt 0 0.7333335
vt 1 0.7666669
vt 0 0.7666669
vt 1 0.80000025
vt 0 0.80000025
vt 1 0.8333336
vt 0 0.8333336
vt 1 0.866667
vt 0 0.866667
vt 1 0.90000033
vt 0 0.90000033
vt 1 0.9333337
vt 0 0.9333337
vt 1 0.96666706
vt 0 0.96666706
vt 1 1.0000004
vt 0 1.0000004
vn 0.997503 0 0.07062368
vn 0.99232614 0 0.12364836
vn 0.997503 0 0.07062368
vn 0.99232614 0 0.123648375
vn 0.9736616 0 0.22799797
vn 0.9736616 0 0.22799793
vn 0.9444312 0 0.328709
vn 0.9444312 0 0.3287092
vn 0.9053591 0 0.424647
vn 0.90535897 0 0.42464712
vn 0.857199 0 0.51498526
vn 0.857199 0 0.51498526
vn 0.80064243 0 0.5991425
vn 0.8006424 0 0.5991425
vn 0.7362741 0 0.6766834
vn 0.7362744 0 0.67668307
vn 0.6645695 0 0.7472265
vn 0.66457003 0 0.747226
vn 0.5859283 0 0.8103629
vn 0.5859286 0 0.8103627
vn 0.5007366 0 0.8655997
vn 0.5007366 0 0.8655997
vn 0.40944344 0 0.9123356
vn 0.40944344 0 0.9123356
vn 0.31266788 0 0.9498625
vn 0.31266788 0 0.9498625
vn 0.21128261 0 0.977425
vn 0.21128261 0 0.977425
vn 0.10647059 0 0.9943159
vn 0.10647058 0 0.9943159
vn -4.6549403E-07 0 1
vn -4.6549403E-07 0 1
vn -0.10647059 0 0.9943158
vn -0.10647059 0 0.9943158
vn -0.21128283 0 0.977425
vn -0.21128285 0 0.977425
vn -0.31266996 0 0.9498618
vn -0.3126699 0 0.9498618
vn -0.40944338 0 0.9123356
vn -0.40944338 0 0.9123356
vn -0.50073534 0 0.8656005
vn -0.5007353 0 0.8656005
vn -0.58592874 0 0.81036264
vn -0.585929 0 0.8103624
vn -0.6645698 0 0.7472261
vn -0.6645704 0 0.7472257
vn -0.73627377 0 0.6766838
vn -0.736274 0 0.6766836
vn -0.8006424 0 0.5991426
vn -0.8006423 0 0.5991426
vn -0.8571997 0 0.514984
vn -0.85719985 0 0.5149839
vn -0.90535986 0 0.42464536
vn -0.90535975 0 0.4246454
vn -0.9444309 0 0.32871008
vn -0.9444309 0 0.32871017
vn -0.9736613 0 0.22799931
vn -0.9736613 0 0.22799931
vn -0.99232614 0 0.123647645
vn -0.99232626 0 0.12364765
vn -0.9975031 0 0.07062356
vn -0.9975031 0 0.07062356
vn -0 1 0
vn -0 1 0
vn -0 1 0
vn -0 1 0
vn -0 1 0
vn -0 1 0
vn -0 1 0
vn -0 1 0
vn -0 1 0
vn -0 1 -4.752801E-07
vn -0 1 0
vn -0 1 -6.5604763E-07
vn -3.059609E-07 1 0
vn -3.059609E-07 1 0
vn -2.813631E-07 1 0
vn -2.8136307E-07 1 0
vn 6.3696825E-07 1 -9.1508963E-07
vn -0 1 0
vn 6.4813173E-07 1 -6.285149E-07
vn -0 1 0
vn -0 1 0
vn -0 1 0
vn -0 1 0
vn -0 1 0
vn -0 1 0
vn -0 1 0
vn -0 1 0
vn -0 1 0
vn -0 1 0
vn -0 1 0
vn -0 1 0
vn -0 1 0
vn -0 1 0
vn -0 1 0
vn -0 1 0
vn -0 1 0
vn -0 1 0
vn -0 1 0
vn -0 1 0
vn -0 1 0
vn -0 1 0
vn -0 1 0
vn -9.660492E-07 1 -5.3578594E-07
vn -0 1 0
vn -6.588661E-07 1 -5.846185E-07
vn -0 1 0
vn 2.8136253E-07 1 0
vn 2.8136319E-07 1 0
vn 3.059596E-07 1 0
vn 3.0596155E-07 1 0
vn 3.2757256E-07 1 0
vn -0 1 -5.4187626E-07
vn -0 1 0
vn -3.0853462E-07 1 -4.944216E-07
vn -0 1 0
vn -0 1 0
vn -0 1 0
vn -0 1 0
vn -0 1 0
vn -0 1 0
vn -0 1 0
vn -0 1 0
g Plane003_0
f 3/3/3 2/2/2 1/1/1
f 4/4/4 1/1/1 2/2/2
f 2/2/2 5/5/5 4/4/4
f 6/6/6 4/4/4 5/5/5
f 5/5/5 7/7/7 6/6/6
f 8/8/8 6/6/6 7/7/7
f 7/7/7 9/9/9 8/8/8
f 10/10/10 8/8/8 9/9/9
f 9/9/9 11/11/11 10/10/10
f 12/12/12 10/10/10 11/11/11
f 11/11/11 13/13/13 12/12/12
f 14/14/14 12/12/12 13/13/13
f 13/13/13 15/15/15 14/14/14
f 16/16/16 14/14/14 15/15/15
f 15/15/15 17/17/17 16/16/16
f 18/18/18 16/16/16 17/17/17
f 17/17/17 19/19/19 18/18/18
f 20/20/20 18/18/18 19/19/19
f 19/19/19 21/21/21 20/20/20
f 22/22/22 20/20/20 21/21/21
f 21/21/21 23/23/23 22/22/22
f 24/24/24 22/22/22 23/23/23
f 23/23/23 25/25/25 24/24/24
f 26/26/26 24/24/24 25/25/25
f 25/25/25 27/27/27 26/26/26
f 28/28/28 26/26/26 27/27/27
f 27/27/27 29/29/29 28/28/28
f 30/30/30 28/28/28 29/29/29
f 29/29/29 31/31/31 30/30/30
f 32/32/32 30/30/30 31/31/31
f 31/31/31 33/33/33 32/32/32
f 34/34/34 32/32/32 33/33/33
f 33/33/33 35/35/35 34/34/34
f 36/36/36 34/34/34 35/35/35
f 35/35/35 37/37/37 36/36/36
f 38/38/38 36/36/36 37/37/37
f 37/37/37 39/39/39 38/38/38
f 40/40/40 38/38/38 39/39/39
f 39/39/39 41/41/41 40/40/40
f 42/42/42 40/40/40 41/41/41
f 41/41/41 43/43/43 42/42/42
f 44/44/44 42/42/42 43/43/43
f 43/43/43 45/45/45 44/44/44
f 46/46/46 44/44/44 45/45/45
f 45/45/45 47/47/47 46/46/46
f 48/48/48 46/46/46 47/47/47
f 47/47/47 49/49/49 48/48/48
f 50/50/50 48/48/48 49/49/49
f 49/49/49 51/51/51 50/50/50
f 52/52/52 50/50/50 51/51/51
f 51/51/51 53/53/53 52/52/52
f 54/54/54 52/52/52 53/53/53
f 53/53/53 55/55/55 54/54/54
f 56/56/56 54/54/54 55/55/55
f 55/55/55 57/57/57 56/56/56
f 58/58/58 56/56/56 57/57/57
f 57/57/57 59/59/59 58/58/58
f 60/60/60 58/58/58 59/59/59
f 59/59/59 61/61/61 60/60/60
f 62/62/62 60/60/60 61/61/61
f 65/65/65 64/64/64 63/63/63
f 66/66/66 63/63/63 64/64/64
f 64/64/64 67/67/67 66/66/66
f 68/68/68 66/66/66 67/67/67
f 67/67/67 69/69/69 68/68/68
f 70/70/70 68/68/68 69/69/69
f 69/69/69 71/71/71 70/70/70
f 72/72/72 70/70/70 71/71/71
f 71/71/71 73/73/73 72/72/72
f 74/74/74 72/72/72 73/73/73
f 73/73/73 75/75/75 74/74/74
f 76/76/76 74/74/74 75/75/75
f 75/75/75 77/77/77 76/76/76
f 78/78/78 76/76/76 77/77/77
f 77/77/77 79/79/79 78/78/78
f 80/80/80 78/78/78 79/79/79
f 79/79/79 81/81/81 80/80/80
f 82/82/82 80/80/80 81/81/81
f 81/81/81 83/83/83 82/82/82
f 84/84/84 82/82/82 83/83/83
f 83/83/83 85/85/85 84/84/84
f 86/86/86 84/84/84 85/85/85
f 85/85/85 87/87/87 86/86/86
f 88/88/88 86/86/86 87/87/87
f 87/87/87 89/89/89 88/88/88
f 90/90/90 88/88/88 89/89/89
f 89/89/89 91/91/91 90/90/90
f 92/92/92 90/90/90 91/91/91
f 91/91/91 93/93/93 92/92/92
f 94/94/94 92/92/92 93/93/93
f 93/93/93 95/95/95 94/94/94
f 96/96/96 94/94/94 95/95/95
f 95/95/95 97/97/97 96/96/96
f 98/98/98 96/96/96 97/97/97
f 97/97/97 99/99/99 98/98/98
f 100/100/100 98/98/98 99/99/99
f 99/99/99 101/101/101 100/100/100
f 102/102/102 100/100/100 101/101/101
f 101/101/101 103/103/103 102/102/102
f 104/104/104 102/102/102 103/103/103
f 103/103/103 105/105/105 104/104/104
f 106/106/106 104/104/104 105/105/105
f 105/105/105 107/107/107 106/106/106
f 108/108/108 106/106/106 107/107/107
f 107/107/107 109/109/109 108/108/108
f 110/110/110 108/108/108 109/109/109
f 109/109/109 111/111/111 110/110/110
f 112/112/112 110/110/110 111/111/111
f 111/111/111 113/113/113 112/112/112
f 114/114/114 112/112/112 113/113/113
f 113/113/113 115/115/115 114/114/114
f 116/116/116 114/114/114 115/115/115
f 115/115/115 117/117/117 116/116/116
f 118/118/118 116/116/116 117/117/117
f 117/117/117 119/119/119 118/118/118
f 120/120/120 118/118/118 119/119/119
f 119/119/119 121/121/121 120/120/120
f 122/122/122 120/120/120 121/121/121
f 121/121/121 123/123/123 122/122/122
f 124/124/124 122/122/122 123/123/123
