g UVluoxuan
v 0.60895044 0 0
v 0.69054973 0 0.11415313
v 0.6489045 0.23618191 0.11415313
v 0.5722262 0.2082733 0
v 0.52899176 0.44387683 0.11415313
v 0.46648306 0.39142582 0
v 0.34527484 0.5980336 0.11415313
v 0.3044752 0.5273666 0
v 0.11991265 0.68005884 0.11415313
v 0.10574308 0.59969914 0
v -0.119912796 0.6800587 0.11415313
v -0.10574321 0.5996991 0
v -0.34527493 0.5980336 0.11415313
v -0.30447525 0.5273665 0
v -0.52899176 0.44387683 0.11415313
v -0.46648306 0.39142582 0
v -0.6489045 0.23618196 0.11415313
v -0.5722262 0.20827335 0
v -0.69054973 1.0427011E-07 0.11415313
v -0.60895044 9.1948955E-08 0
v -0.64890456 -0.23618177 0.11415313
v -0.5722262 -0.20827317 0
v -0.52899194 -0.44387668 0.11415313
v -0.46648318 -0.39142567 0
v -0.34527507 -0.5980335 0.11415313
v -0.3044754 -0.5273664 0
v -0.119913 -0.68005866 0.11415313
v -0.105743386 -0.599699 0
v 0.11991236 -0.68005884 0.11415313
v 0.105742835 -0.59969914 0
v 0.34527454 -0.5980338 0.11415313
v 0.3044749 -0.5273667 0
v 0.5289915 -0.44387713 0.11415313
v 0.46648285 -0.3914261 0
v 0.6489043 -0.23618238 0.11415313
v 0.57222605 -0.20827371 0
v -0.3860748 -0.66870064 0.22830626
v -0.13408262 -0.76041836 0.22830626
v 0.13408192 -0.76041853 0.22830626
v 0.3860742 -0.668701 0.22830626
v 0.5915002 -0.49632826 0.22830626
v 0.72558266 -0.26409107 0.22830626
v 0.7721491 0 0.22830626
v 0.7255829 0.26409054 0.22830626
v 0.5915005 0.49632794 0.22830626
v 0.38607454 0.66870075 0.22830626
v 0.13408223 0.7604185 0.22830626
v -0.13408238 0.7604185 0.22830626
v -0.38607463 0.66870075 0.22830626
v -0.5915005 0.49632794 0.22830626
v -0.7255829 0.2640906 0.22830626
v -0.7721491 1.1659128E-07 0.22830626
v -0.7255829 -0.2640904 0.22830626
v -0.5915007 -0.49632773 0.22830626
v -0.42687428 0.7393678 0.3424594
v -0.14825197 0.8407781 0.3424594
v -0.6540092 0.54877895 0.3424594
v -0.8022611 0.29199922 0.3424594
v -0.85374844 1.2891243E-07 0.3424594
v -0.8022612 -0.29199898 0.3424594
v -0.6540094 -0.5487788 0.3424594
v -0.4268745 -0.73936766 0.3424594
v -0.14825222 -0.84077805 0.3424594
v 0.14825144 -0.8407782 0.3424594
v 0.4268738 -0.73936814 0.3424594
v 0.6540089 -0.5487793 0.3424594
v 0.8022609 -0.29199973 0.3424594
v 0.85374844 0 0.3424594
v 0.8022611 0.29199916 0.3424594
v 0.6540092 0.54877895 0.3424594
v 0.4268742 0.7393679 0.3424594
v 0.1482518 0.8407781 0.3424594
v 0.8789395 0.3199078 0.45661253
v 0.9353478 0 0.45661253
v 0.716518 0.60123 0.45661253
v 0.4676739 0.810035 0.45661253
v 0.16242138 0.9211378 0.45661253
v -0.16242157 0.9211378 0.45661253
v -0.467674 0.810035 0.45661253
v -0.716518 0.60123 0.45661253
v -0.8789395 0.31990787 0.45661253
v -0.9353478 1.412336E-07 0.45661253
v -0.8789395 -0.3199076 0.45661253
v -0.71651816 -0.6012298 0.45661253
v -0.4676742 -0.81003475 0.45661253
v -0.16242185 -0.92113775 0.45661253
v 0.16242099 -0.9211379 0.45661253
v 0.46767345 -0.8100352 0.45661253
v 0.7165176 -0.60123044 0.45661253
v 0.8789392 -0.3199084 0.45661253
v -0.5084739 -0.8807019 0.5707657
v -0.7790269 -0.65368086 0.5707657
v -0.17659146 -1.0014974 0.5707657
v 0.17659053 -1.0014975 0.5707657
v 0.5084731 -0.8807023 0.5707657
v 0.7790263 -0.6536816 0.5707657
v 0.9556175 -0.3478171 0.5707657
v 1.0169472 0 0.5707657
v 0.9556177 0.3478164 0.5707657
v 0.7790267 0.6536811 0.5707657
v 0.5084735 0.88070214 0.5707657
v 0.17659093 1.0014975 0.5707657
v -0.17659114 1.0014975 0.5707657
v -0.50847363 0.880702 0.5707657
v -0.7790267 0.6536811 0.5707657
v -0.9556177 0.3478165 0.5707657
v -1.0169472 1.5355475E-07 0.5707657
v -0.9556178 -0.3478162 0.5707657
vt 0.64325416 0.49240392
vt 0.73742723 0.4924039
vt 0.7231086 0.41119897
vt 0.63461494 0.44340813
vt 0.6818798 0.33978856
vt 0.60973907 0.40032193
vt 0.6187136 0.28678584
vt 0.57162714 0.36834216
vt 0.5412288 0.25858366
vt 0.5248759 0.3513261
vt 0.45877114 0.25858372
vt 0.47512424 0.3513261
vt 0.38128632 0.2867859
vt 0.42837298 0.36834216
vt 0.31812015 0.33978856
vt 0.390261 0.40032193
vt 0.27689135 0.41119897
vt 0.36538517 0.44340813
vt 0.2625727 0.4924039
vt 0.3567459 0.49240392
vt 0.27689132 0.5736087
vt 0.36538517 0.54139966
vt 0.31812012 0.6450192
vt 0.39026096 0.5844859
vt 0.38128626 0.6980218
vt 0.42837292 0.61646557
vt 0.45877105 0.72622406
vt 0.47512418 0.63348174
vt 0.54122865 0.72622406
vt 0.52487576 0.63348174
vt 0.6187135 0.698022
vt 0.571627 0.6164657
vt 0.6818797 0.64501923
vt 0.60973907 0.584486
vt 0.72310853 0.5736089
vt 0.63461494 0.54139984
vt 0.3349387 0.77829814
vt 0.44267473 0.81751096
vt 0.557325 0.8175111
vt 0.66506106 0.77829844
vt 0.7528883 0.70460254
vt 0.8102135 0.6053127
vt 0.8301224 0.4924039
vt 0.81021357 0.37949538
vt 0.75288844 0.28020528
vt 0.6650612 0.20650947
vt 0.5573251 0.16729677
vt 0.44267482 0.16729677
vt 0.33493876 0.20650947
vt 0.24711157 0.28020528
vt 0.1897864 0.37949538
vt 0.16987762 0.49240375
vt 0.1897864 0.6053123
vt 0.24711151 0.7046025
vt 0.29011974 0.12888068
vt 0.42710933 0.07902048
vt 0.17844483 0.22258703
vt 0.10555418 0.34883735
vt 0.08023952 0.49240375
vt 0.10555414 0.6359703
vt 0.17844476 0.7622206
vt 0.29011962 0.85592705
vt 0.42710918 0.90578735
vt 0.57289046 0.90578735
vt 0.70988005 0.85592735
vt 0.821555 0.7622209
vt 0.8944457 0.6359708
vt 0.9197605 0.4924039
vt 0.8944459 0.34883735
vt 0.8215552 0.22258703
vt 0.70988023 0.1288806
vt 0.57289064 0.07902048
vt 0.93214613 0.33511558
vt 0.95988023 0.4924039
vt 0.8522888 0.19679849
vt 0.7299402 0.094135866
vt 0.57985735 0.03951024
vt 0.4201426 0.03951024
vt 0.27005985 0.094135866
vt 0.14771129 0.19679849
vt 0.0678539 0.33511558
vt 0.04011976 0.49240375
vt 0.0678539 0.64969206
vt 0.14771122 0.78800917
vt 0.27005973 0.8906718
vt 0.42014244 0.9452975
vt 0.5798571 0.9452975
vt 0.72993994 0.8906721
vt 0.85228854 0.78800946
vt 0.93214595 0.64969254
vt 0.24999985 0.9254165
vt 0.11697768 0.8137977
vt 0.4131757 0.98480767
vt 0.5868239 0.9848078
vt 0.74999976 0.9254168
vt 0.88302207 0.813798
vt 0.9698462 0.6634143
vt 1 0.4924039
vt 0.96984637 0.32139382
vt 0.8830222 0.17101002
vt 0.75 0.059391133
vt 0.58682406 0
vt 0.41317585 0
vt 0.24999997 0.059391208
vt 0.11697779 0.17101002
vt 0.030153692 0.32139382
vt 0 0.49240375
vt 0.030153655 0.6634138
vn 0.8135265 -1.4405877E-07 -0.5815278
vn 0.8135264 -1.5093978E-07 -0.581528
vn 0.7644648 0.27824247 -0.581528
vn 0.7644649 0.2782425 -0.58152777
vn 0.62319744 0.5229247 -0.581528
vn 0.6231977 0.5229249 -0.58152765
vn 0.4067633 0.70453453 -0.58152795
vn 0.40676332 0.70453465 -0.58152777
vn 0.14126734 0.8011672 -0.5815279
vn 0.14126734 0.80116725 -0.5815278
vn -0.1412675 0.8011672 -0.5815279
vn -0.14126755 0.8011672 -0.5815278
vn -0.4067633 0.7045345 -0.58152807
vn -0.40676332 0.70453465 -0.58152777
vn -0.6231974 0.5229247 -0.58152795
vn -0.62319756 0.52292484 -0.5815276
vn -0.7644647 0.2782425 -0.58152795
vn -0.7644649 0.27824256 -0.5815277
vn -0.81352645 0 -0.5815279
vn -0.81352645 1.12545905E-07 -0.5815279
vn -0.7644649 -0.27824223 -0.58152795
vn -0.76446486 -0.2782423 -0.5815279
vn -0.62319744 -0.52292454 -0.5815279
vn -0.6231976 -0.52292466 -0.58152777
vn -0.4067634 -0.7045345 -0.58152795
vn -0.40676352 -0.70453453 -0.5815277
vn -0.14126779 -0.801167 -0.58152795
vn -0.14126784 -0.8011673 -0.58152765
vn 0.14126694 -0.80116725 -0.58152795
vn 0.14126699 -0.80116737 -0.5815277
vn 0.4067629 -0.70453477 -0.58152795
vn 0.4067629 -0.70453495 -0.5815278
vn 0.6231971 -0.52292514 -0.5815279
vn 0.6231972 -0.52292526 -0.58152777
vn 0.7644647 -0.2782429 -0.5815279
vn 0.7644647 -0.2782429 -0.58152777
vn -0.4067634 -0.7045344 -0.58152795
vn -0.14126775 -0.8011671 -0.5815279
vn 0.14126693 -0.80116725 -0.58152795
vn 0.40676287 -0.70453477 -0.581528
vn 0.6231971 -0.52292514 -0.5815279
vn 0.7644647 -0.27824286 -0.5815279
vn 0.81352645 -1.8448192E-07 -0.5815279
vn 0.7644648 0.2782424 -0.58152795
vn 0.62319744 0.5229247 -0.581528
vn 0.40676323 0.7045346 -0.58152795
vn 0.14126734 0.8011672 -0.5815279
vn -0.14126745 0.8011672 -0.5815279
vn -0.4067633 0.70453453 -0.58152795
vn -0.6231974 0.5229247 -0.58152795
vn -0.7644648 0.27824244 -0.58152795
vn -0.8135265 0 -0.5815278
vn -0.7644649 -0.2782423 -0.5815278
vn -0.6231976 -0.52292454 -0.5815279
vn -0.4067633 0.70453453 -0.58152795
vn -0.14126746 0.8011672 -0.58152795
vn -0.6231974 0.5229247 -0.58152795
vn -0.7644648 0.27824244 -0.58152795
vn -0.81352645 0 -0.5815279
vn -0.7644649 -0.27824226 -0.5815278
vn -0.62319756 -0.52292454 -0.5815278
vn -0.4067635 -0.7045344 -0.5815279
vn -0.14126779 -0.8011671 -0.5815278
vn 0.14126699 -0.80116725 -0.5815279
vn 0.40676284 -0.70453477 -0.5815279
vn 0.62319714 -0.5229251 -0.58152795
vn 0.7644647 -0.27824286 -0.5815279
vn 0.81352645 -2.1323235E-07 -0.5815279
vn 0.7644648 0.27824238 -0.5815279
vn 0.62319744 0.5229247 -0.5815279
vn 0.40676317 0.70453465 -0.58152795
vn 0.14126734 0.8011672 -0.5815279
vn 0.7644648 0.27824238 -0.5815279
vn 0.81352645 -1.940654E-07 -0.5815279
vn 0.6231974 0.5229248 -0.58152795
vn 0.40676317 0.70453465 -0.58152795
vn 0.14126736 0.8011672 -0.5815279
vn -0.14126745 0.8011672 -0.5815279
vn -0.40676332 0.70453453 -0.58152795
vn -0.6231974 0.5229248 -0.58152795
vn -0.7644648 0.2782424 -0.5815279
vn -0.8135265 0 -0.5815278
vn -0.76446486 -0.27824226 -0.5815279
vn -0.6231975 -0.5229245 -0.58152795
vn -0.4067635 -0.7045344 -0.58152795
vn -0.14126779 -0.801167 -0.58152795
vn 0.14126702 -0.80116725 -0.5815279
vn 0.40676287 -0.70453477 -0.5815279
vn 0.623197 -0.5229251 -0.58152795
vn 0.7644646 -0.2782428 -0.581528
vn -0.40676346 -0.7045344 -0.5815279
vn -0.6231975 -0.5229245 -0.58152795
vn -0.14126778 -0.8011672 -0.5815279
vn 0.14126708 -0.8011673 -0.58152777
vn 0.40676287 -0.7045348 -0.5815278
vn 0.623197 -0.5229251 -0.5815279
vn 0.7644646 -0.2782428 -0.581528
vn 0.8135265 -1.5876799E-07 -0.5815278
vn 0.7644649 0.27824247 -0.58152765
vn 0.62319744 0.52292484 -0.58152777
vn 0.40676314 0.70453465 -0.58152777
vn 0.14126737 0.8011673 -0.58152777
vn -0.14126746 0.8011673 -0.5815277
vn -0.40676335 0.7045347 -0.58152765
vn -0.6231975 0.5229249 -0.5815277
vn -0.7644649 0.27824256 -0.5815277
vn -0.8135265 0 -0.58152777
vn -0.7644649 -0.2782422 -0.5815278
g UVluoxuan_0
f 3/3/3 2/2/2 1/1/1
f 4/4/4 3/3/3 1/1/1
f 5/5/5 3/3/3 4/4/4
f 6/6/6 5/5/5 4/4/4
f 7/7/7 5/5/5 6/6/6
f 8/8/8 7/7/7 6/6/6
f 9/9/9 7/7/7 8/8/8
f 10/10/10 9/9/9 8/8/8
f 11/11/11 9/9/9 10/10/10
f 12/12/12 11/11/11 10/10/10
f 13/13/13 11/11/11 12/12/12
f 14/14/14 13/13/13 12/12/12
f 15/15/15 13/13/13 14/14/14
f 16/16/16 15/15/15 14/14/14
f 17/17/17 15/15/15 16/16/16
f 18/18/18 17/17/17 16/16/16
f 19/19/19 17/17/17 18/18/18
f 20/20/20 19/19/19 18/18/18
f 21/21/21 19/19/19 20/20/20
f 22/22/22 21/21/21 20/20/20
f 23/23/23 21/21/21 22/22/22
f 24/24/24 23/23/23 22/22/22
f 25/25/25 23/23/23 24/24/24
f 26/26/26 25/25/25 24/24/24
f 27/27/27 25/25/25 26/26/26
f 28/28/28 27/27/27 26/26/26
f 29/29/29 27/27/27 28/28/28
f 30/30/30 29/29/29 28/28/28
f 31/31/31 29/29/29 30/30/30
f 32/32/32 31/31/31 30/30/30
f 33/33/33 31/31/31 32/32/32
f 34/34/34 33/33/33 32/32/32
f 35/35/35 33/33/33 34/34/34
f 36/36/36 35/35/35 34/34/34
f 2/2/2 35/35/35 36/36/36
f 1/1/1 2/2/2 36/36/36
f 25/25/25 37/37/37 23/23/23
f 38/38/38 37/37/37 25/25/25
f 27/27/27 38/38/38 25/25/25
f 39/39/39 38/38/38 27/27/27
f 29/29/29 39/39/39 27/27/27
f 40/40/40 39/39/39 29/29/29
f 31/31/31 40/40/40 29/29/29
f 41/41/41 40/40/40 31/31/31
f 33/33/33 41/41/41 31/31/31
f 42/42/42 41/41/41 33/33/33
f 35/35/35 42/42/42 33/33/33
f 43/43/43 42/42/42 35/35/35
f 2/2/2 43/43/43 35/35/35
f 44/44/44 43/43/43 2/2/2
f 3/3/3 44/44/44 2/2/2
f 45/45/45 44/44/44 3/3/3
f 5/5/5 45/45/45 3/3/3
f 46/46/46 45/45/45 5/5/5
f 7/7/7 46/46/46 5/5/5
f 47/47/47 46/46/46 7/7/7
f 9/9/9 47/47/47 7/7/7
f 48/48/48 47/47/47 9/9/9
f 11/11/11 48/48/48 9/9/9
f 49/49/49 48/48/48 11/11/11
f 13/13/13 49/49/49 11/11/11
f 50/50/50 49/49/49 13/13/13
f 15/15/15 50/50/50 13/13/13
f 51/51/51 50/50/50 15/15/15
f 17/17/17 51/51/51 15/15/15
f 52/52/52 51/51/51 17/17/17
f 19/19/19 52/52/52 17/17/17
f 53/53/53 52/52/52 19/19/19
f 21/21/21 53/53/53 19/19/19
f 54/54/54 53/53/53 21/21/21
f 23/23/23 54/54/54 21/21/21
f 37/37/37 54/54/54 23/23/23
f 49/49/49 55/55/55 48/48/48
f 55/55/55 56/56/56 48/48/48
f 57/57/57 55/55/55 49/49/49
f 50/50/50 57/57/57 49/49/49
f 58/58/58 57/57/57 50/50/50
f 51/51/51 58/58/58 50/50/50
f 59/59/59 58/58/58 51/51/51
f 52/52/52 59/59/59 51/51/51
f 60/60/60 59/59/59 52/52/52
f 53/53/53 60/60/60 52/52/52
f 61/61/61 60/60/60 53/53/53
f 54/54/54 61/61/61 53/53/53
f 62/62/62 61/61/61 54/54/54
f 37/37/37 62/62/62 54/54/54
f 63/63/63 62/62/62 37/37/37
f 38/38/38 63/63/63 37/37/37
f 64/64/64 63/63/63 38/38/38
f 39/39/39 64/64/64 38/38/38
f 65/65/65 64/64/64 39/39/39
f 40/40/40 65/65/65 39/39/39
f 66/66/66 65/65/65 40/40/40
f 41/41/41 66/66/66 40/40/40
f 67/67/67 66/66/66 41/41/41
f 42/42/42 67/67/67 41/41/41
f 68/68/68 67/67/67 42/42/42
f 43/43/43 68/68/68 42/42/42
f 69/69/69 68/68/68 43/43/43
f 44/44/44 69/69/69 43/43/43
f 70/70/70 69/69/69 44/44/44
f 45/45/45 70/70/70 44/44/44
f 71/71/71 70/70/70 45/45/45
f 46/46/46 71/71/71 45/45/45
f 72/72/72 71/71/71 46/46/46
f 47/47/47 72/72/72 46/46/46
f 56/56/56 72/72/72 47/47/47
f 48/48/48 56/56/56 47/47/47
f 69/69/69 73/73/73 68/68/68
f 73/73/73 74/74/74 68/68/68
f 68/68/68 74/74/74 67/67/67
f 75/75/75 73/73/73 69/69/69
f 70/70/70 75/75/75 69/69/69
f 76/76/76 75/75/75 70/70/70
f 71/71/71 76/76/76 70/70/70
f 77/77/77 76/76/76 71/71/71
f 72/72/72 77/77/77 71/71/71
f 78/78/78 77/77/77 72/72/72
f 56/56/56 78/78/78 72/72/72
f 79/79/79 78/78/78 56/56/56
f 55/55/55 79/79/79 56/56/56
f 80/80/80 79/79/79 55/55/55
f 57/57/57 80/80/80 55/55/55
f 81/81/81 80/80/80 57/57/57
f 58/58/58 81/81/81 57/57/57
f 82/82/82 81/81/81 58/58/58
f 59/59/59 82/82/82 58/58/58
f 83/83/83 82/82/82 59/59/59
f 60/60/60 83/83/83 59/59/59
f 84/84/84 83/83/83 60/60/60
f 61/61/61 84/84/84 60/60/60
f 85/85/85 84/84/84 61/61/61
f 62/62/62 85/85/85 61/61/61
f 86/86/86 85/85/85 62/62/62
f 63/63/63 86/86/86 62/62/62
f 87/87/87 86/86/86 63/63/63
f 64/64/64 87/87/87 63/63/63
f 88/88/88 87/87/87 64/64/64
f 65/65/65 88/88/88 64/64/64
f 89/89/89 88/88/88 65/65/65
f 66/66/66 89/89/89 65/65/65
f 90/90/90 89/89/89 66/66/66
f 67/67/67 90/90/90 66/66/66
f 74/74/74 90/90/90 67/67/67
f 85/85/85 91/91/91 84/84/84
f 91/91/91 92/92/92 84/84/84
f 93/93/93 91/91/91 85/85/85
f 86/86/86 93/93/93 85/85/85
f 94/94/94 93/93/93 86/86/86
f 87/87/87 94/94/94 86/86/86
f 95/95/95 94/94/94 87/87/87
f 88/88/88 95/95/95 87/87/87
f 96/96/96 95/95/95 88/88/88
f 89/89/89 96/96/96 88/88/88
f 97/97/97 96/96/96 89/89/89
f 90/90/90 97/97/97 89/89/89
f 98/98/98 97/97/97 90/90/90
f 74/74/74 98/98/98 90/90/90
f 99/99/99 98/98/98 74/74/74
f 73/73/73 99/99/99 74/74/74
f 100/100/100 99/99/99 73/73/73
f 75/75/75 100/100/100 73/73/73
f 101/101/101 100/100/100 75/75/75
f 76/76/76 101/101/101 75/75/75
f 102/102/102 101/101/101 76/76/76
f 77/77/77 102/102/102 76/76/76
f 103/103/103 102/102/102 77/77/77
f 78/78/78 103/103/103 77/77/77
f 104/104/104 103/103/103 78/78/78
f 79/79/79 104/104/104 78/78/78
f 105/105/105 104/104/104 79/79/79
f 80/80/80 105/105/105 79/79/79
f 106/106/106 105/105/105 80/80/80
f 81/81/81 106/106/106 80/80/80
f 107/107/107 106/106/106 81/81/81
f 82/82/82 107/107/107 81/81/81
f 108/108/108 107/107/107 82/82/82
f 83/83/83 108/108/108 82/82/82
f 92/92/92 108/108/108 83/83/83
f 84/84/84 92/92/92 83/83/83
