g Box001_frag_018_frag_004
v 0.06057679 -0.8375152 -0.49397033
v -2.4268804 0.073410004 0.5060296
v 0.34630516 -0.76912427 0.5060296
v -2.516926 0.0023965954 -0.12780406
v -2.568946 -0.038628638 -0.49397033
v 3.2277553 0.12635341 -0.10880506
v 0.34630516 -0.76912427 0.5060296
v 3.277443 0.12976588 0.5060296
v 0.06057679 -0.8375152 -0.49397033
v 3.1966283 0.12421571 -0.49397033
v 0.34630516 -0.76912427 0.5060296
v 1.0592419 0.37726653 0.5060296
v 3.277443 0.12976588 0.5060296
v -2.4268804 0.073410004 0.5060296
v -1.9185365 0.70951915 0.5060296
v 3.1966283 0.12421571 -0.49397033
v -2.568946 -0.038628638 -0.49397033
v 0.06057679 -0.8375152 -0.49397033
v -1.9774548 0.70152605 -0.49397033
v 1.0592419 0.37726653 0.5060296
v 3.2277553 0.12635341 -0.10880506
v 3.277443 0.12976588 0.5060296
v -1.9185365 0.70951915 0.5060296
v 3.1966283 0.12421571 -0.49397033
v -1.9774548 0.70152605 -0.49397033
v -1.9185365 0.70951915 0.5060296
v -2.568946 -0.038628638 -0.49397033
v -1.9774548 0.70152605 -0.49397033
v -2.516926 0.0023965954 -0.12780406
v -2.4268804 0.073410004 0.5060296
vt 0.010550823 0.058199696
vt 0.0016699373 0.03774978
vt 0.002687369 0.06054873
vt 0.0066874675 0.037009493
vt 0.0095861 0.03658183
vt 0.004975903 0.026084334
vt 0 0.002353207
vt 0.00013609666 0.02649355
vt 0.007862205 0
vt 0.008007815 0.025827976
vt 0.5165174 0.6701804
vt 0.5429225 0.69884014
vt 0.6250781 0.6926526
vt 0.4138068 0.6912437
vt 0.43263438 0.7071464
vt 0.37791508 0.6925138
vt 0.59145486 0.6884427
vt 0.49406517 0.66847056
vt 0.5695478 0.70694655
vt 0.007902202 0.061970424
vt 0.0030327209 0.079151265
vt 0.007873816 0.07954493
vt 0.007940309 0.038377877
vt 0 0.07890466
vt 6.621259E-05 0.03791108
vt 0 0.007880644
vt 0.007799146 0
vt 0.0003387904 0
vt 0.007291083 0.002885626
vt 0.006411636 0.007880644
vn -0.28754163 -0.94643766 0.14688656
vn -0.2875416 -0.94643766 0.14688654
vn -0.2875416 -0.94643766 0.14688656
vn -0.28754154 -0.94643766 0.14688653
vn -0.2875412 -0.9464374 0.14688878
vn 0.29314274 -0.9558919 -0.018384859
vn 0.29314274 -0.9558919 -0.018384859
vn 0.29314277 -0.9558919 -0.018384745
vn 0.2931428 -0.9558919 -0.01838486
vn 0.2931428 -0.9558919 -0.01838491
vn -0 0 1
vn -0 0 1
vn -0 0 1
vn -0 0 1
vn -0 0 1
vn -0 0 -1
vn -0 0 -1
vn -0 0 -1
vn -0 0 -1
vn 0.11087744 0.99372864 -0.014475897
vn 0.11087743 0.99372864 -0.014475896
vn 0.11087745 0.99372864 -0.014475896
vn 0.11087761 0.99372864 -0.014475375
vn -0 0 -1
vn -0 0 -1
vn -0 0 1
vn -0 0 -1
vn -0 0 -1
vn -0.7805372 0.6237632 0.0410017
vn -0 0 1
g Box001_frag_018_frag_004_0
f 3/3/3 2/2/2 1/1/1
f 2/2/2 4/4/4 1/1/1
f 4/4/4 5/5/5 1/1/1
f 8/8/8 7/7/7 6/6/6
f 7/7/7 9/9/9 6/6/6
f 9/9/9 10/10/10 6/6/6
f 13/13/13 12/12/12 11/11/11
f 12/12/12 14/14/14 11/11/11
f 15/15/15 14/14/14 12/12/12
f 18/18/18 17/17/17 16/16/16
f 19/19/19 16/16/16 17/17/17
f 22/22/22 21/21/21 20/20/20
f 21/21/21 23/23/23 20/20/20
f 24/24/24 23/23/23 21/21/21
f 25/25/25 23/23/23 24/24/24
f 28/28/28 27/27/27 26/26/26
f 27/27/27 29/29/29 26/26/26
f 29/29/29 30/30/30 26/26/26
