g Box001_frag_009_frag_001
v 0.90665674 -2.0260742 -0.4970038
v 3.1853282 1.5563084 0.5029962
v 3.236552 1.5146624 -0.4970038
v 0.7864842 -2.08921 0.5029962
v -1.8793463 0.6210164 -0.4970038
v -0.5734797 2.5556333 -0.4970038
v -1.5783087 1.7519656 -0.4970038
v -2.5551324 -1.9178007 -0.4970038
v 3.236552 1.5146624 -0.4970038
v 0.85793275 3.7004848 -0.4970038
v -0.7273613 -3.4271505 -0.4970038
v -0.5261068 -3.4497242 -0.4970038
v 0.90665674 -2.0260742 -0.4970038
v -2.8922586 -3.184328 -0.4970038
v 0.88467646 3.6704845 0.5029962
v 3.236552 1.5146624 -0.4970038
v 3.1853282 1.5563084 0.5029962
v 0.8805379 3.6751275 0.34824148
v 0.8786164 3.6772828 0.27640083
v 0.85793275 3.7004848 -0.4970038
v -0.6488683 2.4439473 0.5029962
v -1.7719791 0.7800792 0.5029962
v -1.5130714 1.7527529 0.5029962
v 0.88467646 3.6704845 0.5029962
v 3.1853282 1.5563084 0.5029962
v -2.467195 -1.8317322 0.5029962
v -2.685405 -2.651511 0.5029962
v 0.7864842 -2.08921 0.5029962
v -0.5618289 -3.4289465 0.5029962
v -2.8247814 -3.1751258 0.5029962
v 0.8786164 3.6772828 0.27640083
v -0.5734797 2.5556333 -0.4970038
v 0.85793275 3.7004848 -0.4970038
v -0.6488683 2.4439473 0.5029962
v -1.5130714 1.7527529 0.5029962
v -1.5783087 1.7519656 -0.4970038
v 0.8805379 3.6751275 0.34824148
v 0.88467646 3.6704845 0.5029962
v -0.5419997 -3.44048 -0.052095767
v 0.90665674 -2.0260742 -0.4970038
v -0.5261068 -3.4497242 -0.4970038
v 0.7864842 -2.08921 0.5029962
v -0.5618289 -3.4289465 0.5029962
v -1.7719791 0.7800792 0.5029962
v -1.5783087 1.7519656 -0.4970038
v -1.5130714 1.7527529 0.5029962
v -2.467195 -1.8317322 0.5029962
v -2.685405 -2.651511 0.5029962
v -2.8247814 -3.1751258 0.5029962
v -1.8793463 0.6210164 -0.4970038
v -2.5551324 -1.9178007 -0.4970038
v -2.8922586 -3.184328 -0.4970038
v -0.7273613 -3.4271505 -0.4970038
v -0.5419997 -3.44048 -0.052095767
v -0.5261068 -3.4497242 -0.4970038
v -2.8247814 -3.1751258 0.5029962
v -0.5618289 -3.4289465 0.5029962
v -2.8922586 -3.184328 -0.4970038
vt 0.0009354305 0
vt 0.034361996 0.0078909835
vt 0.03430977 0
vt 0 0.0078909835
vt 0.3860498 0.61395025
vt 0.3376844 0.66231567
vt 0.37490028 0.64222395
vt 0.41107893 0.5504798
vt 0.19657208 0.6362914
vt 0.2846691 0.690937
vt 0.34338367 0.512746
vt 0.33592978 0.51218164
vt 0.28286448 0.54777294
vt 0.4235651 0.51881665
vt 0.00790193 0.0075728945
vt 0.00012011796 0.032723166
vt 0.007992239 0.032175396
vt 0.0066832085 0.0075286375
vt 0.0061174505 0.0075080935
vt 2.6748401E-05 0.0072869137
vt 0.6595234 0.6595234
vt 0.6179267 0.6179267
vt 0.62751585 0.6422435
vt 0.71632135 0.69018686
vt 0.8015307 0.63733244
vt 0.592178 0.55263144
vt 0.58409613 0.532137
vt 0.7126847 0.54619455
vt 0.66274714 0.51270115
vt 0.5789341 0.51904666
vt 0.0060911514 0.07038247
vt 0.00046264828 0.055748936
vt 0 0.07017402
vt 0.008371421 0.054989204
vt 0.008650741 0.04628018
vt 0.00078742014 0.04562275
vt 0.006656951 0.07040183
vt 0.007875763 0.07044353
vt 0.008371684 0.1986927
vt 0.011243647 0.21476044
vt 0.011873452 0.19886899
vt 0.0034099997 0.21342754
vt 0.004002683 0.19847277
vt 0.007925529 0.007889547
vt 0.00013812065 0
vt 0 0.007889547
vt 0.029207066 0.007889547
vt 0.03588678 0.007889547
vt 0.0401533 0.007889547
vt 0.009353311 0
vt 0.030040074 0
vt 0.040359985 0
vt 0.007906186 0.0171533
vt 0.0044052256 0.018621989
vt 0.007909167 0.018747915
vt 0 0.0005346441
vt 3.3513606E-05 0.018464874
vt 0.007874125 0
vn 0.8335707 -0.5485108 0.065541625
vn 0.8335707 -0.54851085 0.065541625
vn 0.8335706 -0.5485108 0.06554195
vn 0.8335708 -0.5485108 0.06554163
vn -0 0 -1
vn -0 0 -1
vn -0 0 -1
vn -0 0 -1
vn -0 0 -1
vn -0 0 -1
vn -0 0 -1
vn -0 0 -1
vn -0 0 -1
vn -0 0 -1
vn 0.6766309 0.73631155 0.0039952523
vn 0.6766309 0.73631155 0.0039952523
vn 0.6766309 0.73631144 0.0039952523
vn 0.67663115 0.7363113 0.0039961473
vn 0.6766306 0.73631185 0.003993634
vn 0.6766306 0.73631185 0.003993634
vn -0 0 1
vn -0 0 1
vn -0 0 1
vn -0 0 1
vn -0 0 1
vn -0 0 1
vn -0 0 1
vn -0 0 1
vn -0 0 1
vn -0 0 1
vn -0.6240999 0.78031486 0.040100053
vn -0.6240999 0.78031486 0.040100053
vn -0.6240999 0.78031486 0.040100053
vn -0 0 1
vn -0 0 1
vn -0.6241001 0.7803148 0.040100288
vn -0.62409985 0.7803148 0.04010139
vn -0.6240998 0.7803148 0.040101387
vn 0.70428634 -0.7087947 0.03988561
vn 0.70428634 -0.7087947 0.03988561
vn 0.70428634 -0.7087947 0.03988561
vn 0.7042861 -0.70879483 0.03988605
vn 0.7042861 -0.70879483 0.03988605
vn -0 0 1
vn -0.9644493 0.25671852 0.06271598
vn -0 0 1
vn -0 0 1
vn -0 0 1
vn -0 0 1
vn -0.9644493 0.25671846 0.06271552
vn -0.9644493 0.25671852 0.06271561
vn -0.9644493 0.25671855 0.06271569
vn -0.11145053 -0.99363023 0.016664274
vn -0.11145054 -0.99363023 0.016664274
vn -0.11145051 -0.99363023 0.016664274
vn -0 0 1
vn -0.11144899 -0.99363047 0.016664324
vn -0.111449085 -0.99363035 0.016663762
g Box001_frag_009_frag_001_0
f 3/3/3 2/2/2 1/1/1
f 4/4/4 1/1/1 2/2/2
f 7/7/7 6/6/6 5/5/5
f 5/5/5 6/6/6 8/8/8
f 6/6/6 9/9/9 8/8/8
f 10/10/10 9/9/9 6/6/6
f 9/9/9 11/11/11 8/8/8
f 12/12/12 11/11/11 9/9/9
f 13/13/13 12/12/12 9/9/9
f 11/11/11 14/14/14 8/8/8
f 17/17/17 16/16/16 15/15/15
f 16/16/16 18/18/18 15/15/15
f 19/19/19 18/18/18 16/16/16
f 20/20/20 19/19/19 16/16/16
f 23/23/23 22/22/22 21/21/21
f 21/21/21 22/22/22 24/24/24
f 22/22/22 25/25/25 24/24/24
f 26/26/26 25/25/25 22/22/22
f 27/27/27 25/25/25 26/26/26
f 28/28/28 25/25/25 27/27/27
f 29/29/29 28/28/28 27/27/27
f 30/30/30 29/29/29 27/27/27
f 33/33/33 32/32/32 31/31/31
f 32/32/32 34/34/34 31/31/31
f 35/35/35 34/34/34 32/32/32
f 36/36/36 35/35/35 32/32/32
f 34/34/34 37/37/37 31/31/31
f 38/38/38 37/37/37 34/34/34
f 41/41/41 40/40/40 39/39/39
f 40/40/40 42/42/42 39/39/39
f 42/42/42 43/43/43 39/39/39
f 46/46/46 45/45/45 44/44/44
f 45/45/45 47/47/47 44/44/44
f 48/48/48 47/47/47 45/45/45
f 49/49/49 48/48/48 45/45/45
f 50/50/50 49/49/49 45/45/45
f 51/51/51 49/49/49 50/50/50
f 52/52/52 49/49/49 51/51/51
f 55/55/55 54/54/54 53/53/53
f 54/54/54 56/56/56 53/53/53
f 57/57/57 56/56/56 54/54/54
f 56/56/56 58/58/58 53/53/53
