g Box001_frag_015
v 3.9861228 2.2321396 0.50001353
v -2.5640924 -7.471883 0.50001353
v -2.5640924 8.005501 0.50001353
v -0.70460206 -7.471883 0.50001353
v 4.8913155 1.4343032 0.50001353
v -2.5640924 -7.471883 -0.49998644
v -0.688823 -7.471883 -0.430532
v -0.68764573 -7.471883 -0.49998644
v -2.5640924 -7.471883 0.50001353
v -0.70460206 -7.471883 0.50001353
v -2.5640924 7.9867053 -0.49998644
v -2.5640924 -7.471883 0.50001353
v -2.5640924 -7.471883 -0.49998644
v -2.5640924 7.9982314 0.11326071
v -2.5640924 8.005501 0.50001353
v 3.9861228 2.2321396 0.50001353
v 4.894629 1.4125881 -0.49998644
v 4.8913155 1.4343032 0.50001353
v -2.5640924 7.9982314 0.11326071
v 3.9781685 2.2203574 -0.49998644
v -2.5640924 7.9867053 -0.49998644
v -2.5640924 8.005501 0.50001353
v 3.9781685 2.2203574 -0.49998644
v -0.68764573 -7.471883 -0.49998644
v 4.894629 1.4125881 -0.49998644
v -2.5640924 -7.471883 -0.49998644
v -2.5640924 7.9867053 -0.49998644
v -0.688823 -7.471883 -0.430532
v 4.894629 1.4125881 -0.49998644
v -0.68764573 -7.471883 -0.49998644
v -0.70460206 -7.471883 0.50001353
v 4.8913155 1.4343032 0.50001353
vt 0.24260056 0.24260056
vt 0 0
vt 0 0.38693458
vt 0.06886999 0
vt 0.2761262 0.22265464
vt 0 0
vt 0.06945442 0.06945442
vt 0.069498025 0
vt 0 1
vt 0.06886999 1
vt 0.6135353 0
vt 1 1
vt 1 0
vt 0.61324716 0.61324716
vt 0.6130654 1
vt 0.009308462 0.068745725
vt 0.0013145737 0.07828066
vt 0.009190411 0.078245886
vt 0.007116871 0
vt 0.0014340937 0.06866223
vt 0.0022873005 4.7683715E-09
vt 0.0101627065 4.7683715E-09
vt 0.757694 0.242306
vt 0.930502 0
vt 0.72375107 0.22211178
vt 1 0
vt 1 0.3864647
vt 6.61087E-05 0.0005469415
vt 0.0826903 0
vt 7.1029666E-05 0
vt 0 0.007874828
vt 0.0828212 0.007874828
vn -0 0 1
vn -0 0 1
vn -0 0 1
vn -0 0 1
vn -0 0 1
vn -0 -1 0
vn -0 -1 0
vn -0 -1 0
vn -0 -1 0
vn -0 -1 0
vn -1 0 0
vn -1 0 0
vn -1 0 0
vn -1 0 0
vn -1 0 0
vn 0.66115385 0.7501179 -0.014097913
vn -0 0 -1
vn 0.6611539 0.75011784 -0.014097912
vn 0.661154 0.75011784 -0.014099242
vn -0 0 -1
vn -0 0 -1
vn 0.661154 0.75011784 -0.014099243
vn -0 0 -1
vn -0 0 -1
vn -0 0 -1
vn -0 0 -1
vn -0 0 -1
vn 0.84664595 -0.531963 0.014350667
vn 0.84664595 -0.53196305 0.014350667
vn 0.84664595 -0.53196305 0.014350667
vn 0.84664595 -0.5319629 0.014356405
vn -0 0 1
g Box001_frag_015_0
f 3/3/3 2/2/2 1/1/1
f 2/2/2 4/4/4 1/1/1
f 4/4/4 5/5/5 1/1/1
f 8/8/8 7/7/7 6/6/6
f 7/7/7 9/9/9 6/6/6
f 10/10/10 9/9/9 7/7/7
f 13/13/13 12/12/12 11/11/11
f 12/12/12 14/14/14 11/11/11
f 15/15/15 14/14/14 12/12/12
f 18/18/18 17/17/17 16/16/16
f 17/17/17 19/19/19 16/16/16
f 20/20/20 19/19/19 17/17/17
f 21/21/21 19/19/19 20/20/20
f 19/19/19 22/22/22 16/16/16
f 25/25/25 24/24/24 23/23/23
f 24/24/24 26/26/26 23/23/23
f 26/26/26 27/27/27 23/23/23
f 30/30/30 29/29/29 28/28/28
f 29/29/29 31/31/31 28/28/28
f 32/32/32 31/31/31 29/29/29
