g Box001_frag_005
v 4.3972054 2.4490013 -0.49967095
v 1.3212117 -4.1501126 -0.49967095
v 3.5572658 -1.7104467 -0.49967095
v -3.0237653 5.0068274 -0.49967095
v -3.0237653 -5.623701 -0.49967095
v -1.5492913 5.0983334 -0.49967095
v 1.3212117 -4.1501126 -0.49967095
v -3.0237653 -5.6274085 0.500329
v 1.1841725 -4.200297 0.500329
v -3.0237653 -5.6250925 -0.12404459
v -3.0237653 -5.623701 -0.49967095
v -3.0237653 5.0068274 -0.49967095
v -3.0237653 -5.6250925 -0.12404459
v -3.0237653 -5.623701 -0.49967095
v -3.0237653 5.00647 -0.38983366
v -3.0237653 5.003573 0.500329
v -3.0237653 -5.6274085 0.500329
v 3.5973172 -1.5674152 0.500329
v -1.5600114 5.094414 0.500329
v 4.40584 2.4364586 0.500329
v -3.0237653 -5.6274085 0.500329
v -3.0237653 5.003573 0.500329
v 1.1841725 -4.200297 0.500329
v -3.0237653 5.00647 -0.38983366
v -1.5600114 5.094414 0.500329
v -3.0237653 5.003573 0.500329
v -1.5492913 5.0983334 -0.49967095
v -3.0237653 5.0068274 -0.49967095
v 4.3972054 2.4490013 -0.49967095
v -1.5600114 5.094414 0.500329
v -1.5492913 5.0983334 -0.49967095
v 4.40584 2.4364586 0.500329
v 3.5572658 -1.7104467 -0.49967095
v 1.1841725 -4.200297 0.500329
v 3.5973172 -1.5674152 0.500329
v 1.3212117 -4.1501126 -0.49967095
v 3.5973172 -1.5674152 0.500329
v 4.3972054 2.4490013 -0.49967095
v 3.5572658 -1.7104467 -0.49967095
v 4.40584 2.4364586 0.500329
vt 0.7251492 0.8262259
vt 0.8390749 0.6612481
vt 0.75625813 0.72223973
vt 1 0.89017165
vt 1 0.6244084
vt 0.94538987 0.8924593
vt 0.007917082 0.036126424
vt 0 0
vt 4.1655898E-05 0.034987006
vt 0.004916361 0
vt 0.007874069 0
vt 0.109828375 0
vt 0.3756264 0.3756264
vt 0.37559158 0
vt 0.1098373 0.1098373
vt 0.10990973 1
vt 0.3756843 1
vt 0.24522528 0.72581553
vt 0.0542131 0.8923612
vt 0.27517056 0.82591236
vt 0 0.62431574
vt 0 0.8900902
vt 0.15584955 0.6599935
vt 0.0008863392 0
vt 0.007893205 0.011547792
vt 0.007895532 0
vt 1.9129953E-05 0.011632364
vt 2.1474361E-05 0
vt 0.00018138683 0.051351734
vt 0.007873986 0
vt 0 9.241104E-05
vt 0.008055963 0.05142616
vt 0.07669249 4.679741E-10
vt 0.0496141 0.00789173
vt 0.07773584 0.00789173
vt 0.05063449 3.0896935E-10
vt 0.0011663771 0.007874488
vt 0.033412665 0
vt 0 0
vt 0.033329315 0.007874488
vn -0 0 -1
vn -0 0 -1
vn -0 0 -1
vn -0 0 -1
vn -0 0 -1
vn -0 0 -1
vn -0 0 -1
vn 0.32117692 -0.94701266 -0.0035116859
vn 0.3211769 -0.94701266 -0.0035116854
vn 0.3211768 -0.94701266 -0.0035123918
vn -0 0 -1
vn -1 0 0
vn -1 0 0
vn -1 0 0
vn -1 0 0
vn -1 0 0
vn -1 0 0
vn -0 0 1
vn -0 0 1
vn -0 0 1
vn -0 0 1
vn -0 0 1
vn -0 0 1
vn -1 0 0
vn -0.06194087 0.99807453 0.003248318
vn -1 0 0
vn -0.06194055 0.99807453 0.0032477833
vn -1 0 0
vn 0.40695214 0.9134149 0.007943026
vn -0 0 1
vn 0.40695217 0.913415 0.007942519
vn -0 0 1
vn 0.73554534 -0.6741576 0.06696619
vn -0 0 1
vn -0 0 1
vn 0.73554546 -0.6741576 0.0669662
vn 0.9801555 -0.19792782 -0.010945637
vn -0 0 -1
vn -0 0 -1
vn 0.9801555 -0.1979278 -0.010945637
g Box001_frag_005_0
f 3/3/3 2/2/2 1/1/1
f 2/2/2 4/4/4 1/1/1
f 5/5/5 4/4/4 2/2/2
f 4/4/4 6/6/6 1/1/1
f 9/9/9 8/8/8 7/7/7
f 8/8/8 10/10/10 7/7/7
f 10/10/10 11/11/11 7/7/7
f 14/14/14 13/13/13 12/12/12
f 13/13/13 15/15/15 12/12/12
f 16/16/16 15/15/15 13/13/13
f 17/17/17 16/16/16 13/13/13
f 20/20/20 19/19/19 18/18/18
f 19/19/19 21/21/21 18/18/18
f 22/22/22 21/21/21 19/19/19
f 21/21/21 23/23/23 18/18/18
f 26/26/26 25/25/25 24/24/24
f 25/25/25 27/27/27 24/24/24
f 27/27/27 28/28/28 24/24/24
f 31/31/31 30/30/30 29/29/29
f 32/32/32 29/29/29 30/30/30
f 35/35/35 34/34/34 33/33/33
f 36/36/36 33/33/33 34/34/34
f 39/39/39 38/38/38 37/37/37
f 40/40/40 37/37/37 38/38/38
