g Box001_frag_019_frag_001
v 0.48090315 -1.9114573 0.502898
v 2.2893744 0.6982817 0.5028979
v 0.91094166 -1.9574647 0.5028979
v -0.36100388 2.2622366 0.5028979
v -1.1218058 -1.7399925 0.5028979
v -1.9584563 -1.3524425 0.5028979
v -1.3646648 0.77533156 0.5028979
v -0.6637109 2.3074248 0.5028979
v -0.5650862 2.382663 0.502898
v -1.0110552 2.0424442 0.50289786
v -0.38562128 2.2257676 -0.49710205
v -0.6451884 2.383644 -0.40475643
v -0.65333813 2.383744 -0.49710205
v -0.6067224 2.3831732 0.031108892
v 2.292707 0.6453198 -0.49710205
v -0.36100388 2.2622366 0.5028979
v -0.5650862 2.382663 0.502898
v 2.2893744 0.6982817 0.5028979
v 0.91425484 -1.9618778 0.32108396
v 2.292707 0.6453198 -0.49710205
v 0.9291643 -1.9817386 -0.49710205
v 0.91094166 -1.9574647 0.5028979
v 2.2893744 0.6982817 0.5028979
v -1.2728496 -1.736682 -0.07266572
v -1.9584563 -1.3524425 0.5028979
v -1.1218058 -1.7399925 0.5028979
v -2.0470002 -1.4055192 -0.30957296
v -1.3842338 -1.734241 -0.49710205
v -2.0674372 -1.4177701 -0.49710205
v -1.3646648 0.77533156 0.5028979
v -1.1020975 2.0413966 -0.49710205
v -1.0110552 2.0424442 0.50289786
v -2.0470002 -1.4055192 -0.30957296
v -1.5193775 0.5461287 -0.49710205
v -2.0674372 -1.4177701 -0.49710205
v -1.9584563 -1.3524425 0.5028979
v -1.5193775 0.5461287 -0.49710205
v -0.65333813 2.383744 -0.49710205
v -1.1020975 2.0413966 -0.49710205
v -0.38562128 2.2257676 -0.49710205
v -2.0674372 -1.4177701 -0.49710205
v 0.44167542 -1.9295845 -0.49710205
v 0.9291643 -1.9817386 -0.49710205
v 2.292707 0.6453198 -0.49710205
v -1.3842338 -1.734241 -0.49710205
v -1.1020975 2.0413966 -0.49710205
v -0.6637109 2.3074248 0.5028979
v -1.0110552 2.0424442 0.50289786
v -0.6451884 2.383644 -0.40475643
v -0.6067224 2.3831732 0.031108892
v -0.5650862 2.382663 0.502898
v -0.65333813 2.383744 -0.49710205
v -1.2728496 -1.736682 -0.07266572
v 0.44167542 -1.9295845 -0.49710205
v -1.3842338 -1.734241 -0.49710205
v 0.48090315 -1.9114573 0.502898
v 0.91425484 -1.9618778 0.32108396
v 0.9291643 -1.9817386 -0.49710205
v 0.91094166 -1.9574647 0.5028979
v -1.1218058 -1.7399925 0.5028979
vt 0.55694133 0.42141724
vt 0.62392175 0.4866607
vt 0.57286865 0.42026702
vt 0.5257596 0.5257596
vt 0.49758172 0.42570382
vt 0.46659464 0.43539256
vt 0.48858693 0.48858693
vt 0.5145482 0.5268893
vt 0.518201 0.52877027
vt 0.5016836 0.52026474
vt 0.0030358096 0.027520435
vt 0.0038253078 0.02514809
vt 0.0030991607 0.025073603
vt 0.0072526755 0.025499653
vt 0.0024020248 0.051999353
vt 0.010914233 0.027745428
vt 0.010962525 0.025880191
vt 0.010287062 0.0519689
vt 0.0059786774 0.0064448197
vt 0.029199824 0
vt 0.00589396 0
vt 0.0059975022 0.0078769615
vt 0.029557873 0.0078769615
vt 0.010136079 0.11513753
vt 0.0052861134 0.109194964
vt 0.00563717 0.11644672
vt 0.0116891265 0.1084275
vt 0.0134537 0.1141721
vt 0.013167028 0.108250365
vt 0.014593627 0.007904039
vt 0.004435776 0
vt 0.0042351363 0.007904039
vt 0.03257787 0.0014822372
vt 0.016659405 0
vt 0.032714035 2.9802322E-10
vt 0.031987917 0.007904039
vt 0.5171432 0.4828568
vt 0.4850676 0.5287972
vt 0.50168836 0.5202385
vt 0.4751522 0.5248478
vt 0.5374417 0.4337594
vt 0.4445116 0.420964
vt 0.42645645 0.41966015
vt 0.37595487 0.4853366
vt 0.51213783 0.4258476
vt 0.00018396914 0
vt 0.007896669 0.00433792
vt 0.008039063 0.0009008813
vt 0.0007254896 0.004521203
vt 0.0041497513 0.004901831
vt 0.007856239 0.0053138305
vt 0 0.0044405605
vt 0.004530286 0.00088204385
vt 0.007905372 0.01445924
vt 0.007871043 0
vt 3.0132533E-05 0.014769883
vt 0.0014702427 0.018201564
vt 0.007914538 0.018319631
vt 3.8217902E-05 0.018175326
vt 0 0.0020781476
vn -0 0 1
vn -0 0 1
vn -0 0 1
vn -0 0 1
vn -0 0 1
vn -0 0 1
vn -0 0 1
vn -0 0 1
vn -0 0 1
vn -0 0 1
vn 0.50771534 0.8604069 -0.043876052
vn 0.5077154 0.8604069 -0.043876056
vn 0.50771546 0.8604069 -0.043876056
vn 0.5077151 0.86040694 -0.04387709
vn 0.50771534 0.8604069 -0.043876696
vn 0.5077153 0.86040694 -0.043876797
vn 0.5077154 0.8604069 -0.043876648
vn 0.5077153 0.86040694 -0.0438768
vn 0.88723415 -0.46050814 0.027345777
vn 0.88723415 -0.46050814 0.02734578
vn 0.8872342 -0.46050814 0.027346162
vn 0.88723415 -0.46050814 0.027345777
vn 0.8872342 -0.46050808 0.027346108
vn -0.41801107 -0.9024106 0.10450729
vn -0.41801107 -0.9024106 0.10450729
vn -0.41801107 -0.9024106 0.10450729
vn -0.41801107 -0.9024105 0.10450794
vn -0.41801113 -0.9024105 0.104507945
vn -0.41801107 -0.9024105 0.10450785
vn -0 0 1
vn -0 0 -1
vn -0 0 1
vn -0.9595383 0.26777554 0.08707819
vn -0 0 -1
vn -0.9595384 0.26777562 0.087077186
vn -0.9595383 0.26777554 0.08707819
vn -0 0 -1
vn -0 0 -1
vn -0 0 -1
vn -0 0 -1
vn -0 0 -1
vn -0 0 -1
vn -0 0 -1
vn -0 0 -1
vn -0 0 -1
vn -0 0 -1
vn -0 0 1
vn -0 0 1
vn -0.60563624 0.79388624 0.054307807
vn -0.6056367 0.79388595 0.054306492
vn -0 0 1
vn -0.6056363 0.7938862 0.05430781
vn -0.106351 -0.99408096 0.02219219
vn -0 0 -1
vn -0 0 -1
vn -0 0 1
vn -0.10635103 -0.99408096 0.022191416
vn -0.10635181 -0.99408084 0.022192385
vn -0 0 1
vn -0.10635113 -0.99408096 0.022191891
g Box001_frag_019_frag_001_0
f 3/3/3 2/2/2 1/1/1
f 2/2/2 4/4/4 1/1/1
f 4/4/4 5/5/5 1/1/1
f 6/6/6 5/5/5 4/4/4
f 7/7/7 6/6/6 4/4/4
f 8/8/8 7/7/7 4/4/4
f 9/9/9 8/8/8 4/4/4
f 10/10/10 7/7/7 8/8/8
f 13/13/13 12/12/12 11/11/11
f 12/12/12 14/14/14 11/11/11
f 14/14/14 15/15/15 11/11/11
f 16/16/16 15/15/15 14/14/14
f 17/17/17 16/16/16 14/14/14
f 18/18/18 15/15/15 16/16/16
f 21/21/21 20/20/20 19/19/19
f 19/19/19 20/20/20 22/22/22
f 20/20/20 23/23/23 22/22/22
f 26/26/26 25/25/25 24/24/24
f 25/25/25 27/27/27 24/24/24
f 27/27/27 28/28/28 24/24/24
f 29/29/29 28/28/28 27/27/27
f 32/32/32 31/31/31 30/30/30
f 31/31/31 33/33/33 30/30/30
f 34/34/34 33/33/33 31/31/31
f 35/35/35 33/33/33 34/34/34
f 33/33/33 36/36/36 30/30/30
f 39/39/39 38/38/38 37/37/37
f 38/38/38 40/40/40 37/37/37
f 40/40/40 41/41/41 37/37/37
f 42/42/42 41/41/41 40/40/40
f 43/43/43 42/42/42 40/40/40
f 44/44/44 43/43/43 40/40/40
f 45/45/45 41/41/41 42/42/42
f 48/48/48 47/47/47 46/46/46
f 47/47/47 49/49/49 46/46/46
f 50/50/50 49/49/49 47/47/47
f 51/51/51 50/50/50 47/47/47
f 49/49/49 52/52/52 46/46/46
f 55/55/55 54/54/54 53/53/53
f 54/54/54 56/56/56 53/53/53
f 57/57/57 56/56/56 54/54/54
f 58/58/58 57/57/57 54/54/54
f 59/59/59 56/56/56 57/57/57
f 56/56/56 60/60/60 53/53/53
