g Box001_frag_003
v -2.3008733 2.994994 0.49983266
v 0.5458945 -3.968509 0.49983266
v -5.419961 -1.3105522 0.49983266
v 4.5880504 -0.11690178 0.49983266
v 4.2149034 2.994994 0.49983266
v 0.53725827 -3.955966 -0.5001673
v 4.5880504 -0.11690178 0.49983266
v 4.6079564 -0.077163406 -0.5001673
v 0.5458945 -3.968509 0.49983266
v 4.5880504 -0.11690178 0.49983266
v 4.239575 2.994994 -0.5001673
v 4.6079564 -0.077163406 -0.5001673
v 4.225054 2.994994 0.0883969
v 4.2149034 2.994994 0.49983266
v -2.2995355 2.994994 0.33004832
v 4.2149034 2.994994 0.49983266
v -2.3008733 2.994994 0.49983266
v 4.225054 2.994994 0.0883969
v -2.2929924 2.994994 -0.5001673
v 4.239575 2.994994 -0.5001673
v 4.239575 2.994994 -0.5001673
v 0.53725827 -3.955966 -0.5001673
v 4.6079564 -0.077163406 -0.5001673
v -5.40924 -1.3066342 -0.5001673
v -2.2929924 2.994994 -0.5001673
v -5.419961 -1.3105522 0.49983266
v 0.53725827 -3.955966 -0.5001673
v -5.40924 -1.3066342 -0.5001673
v 0.5458945 -3.968509 0.49983266
v -2.2995355 2.994994 0.33004832
v -5.40924 -1.3066342 -0.5001673
v -2.2929924 2.994994 -0.5001673
v -5.419961 -1.3105522 0.49983266
v -2.3008733 2.994994 0.49983266
vt 0.16973475 1
vt 0.2751706 0.8259125
vt 0.054212976 0.89236134
vt 0.4248801 0.9222026
vt 0.41105983 1
vt 0.009031935 0.08070395
vt 0.0017873506 0.12475682
vt 0.009666166 0.1249733
vt 0.0011575652 0.08079788
vt 0 0.007876378
vt 0.024655513 0
vt 0.00029200554 0
vt 0.024669122 0.0046357545
vt 0.02467864 0.007876378
vt 0.83021575 0.83021575
vt 0.58894014 1
vt 0.8302652 1
vt 0.5885643 0.5885643
vt 0.82997334 0
vt 0.5880264 0
vt 0.5880264 1
vt 0.7251493 0.826226
vt 0.57438266 0.9231961
vt 0.9453899 0.89245933
vt 0.82997334 1
vt 0.00018197739 0.012617659
vt 0.007874575 0.06396942
vt 0.008055963 0.012710083
vt 0 0.064043865
vt 3.0231477E-05 0.0065372633
vt 0.041825034 0
vt 0 0
vt 0.041899547 0.007874177
vt 3.6401747E-05 0.007874175
vn -0 0 1
vn -0 0 1
vn -0 0 1
vn -0 0 1
vn -0 0 1
vn -0 0 -1
vn 0.6897589 -0.723883 -0.015036458
vn -0 0 -1
vn 0.6897589 -0.723883 -0.01503646
vn -0 0 1
vn 0.9925897 0.119021215 0.024488475
vn 0.9925897 0.119021215 0.024488473
vn -0 1 0
vn -0 1 0
vn -0 1 0
vn -0 1 0
vn -0 1 0
vn -0 1 0
vn -0 1 0
vn -0 1 0
vn -0 0 -1
vn -0 0 -1
vn -0 0 -1
vn -0 0 -1
vn -0 0 -1
vn -0.4069521 -0.913415 -0.007942288
vn -0 0 -1
vn -0 0 -1
vn -0.40695217 -0.913415 -0.007942289
vn -0 1 0
vn -0 0 -1
vn -0 1 0
vn -0.8098114 0.58665544 -0.0063835974
vn -0 1 0
g Box001_frag_003_0
f 3/3/3 2/2/2 1/1/1
f 2/2/2 4/4/4 1/1/1
f 4/4/4 5/5/5 1/1/1
f 8/8/8 7/7/7 6/6/6
f 9/9/9 6/6/6 7/7/7
f 12/12/12 11/11/11 10/10/10
f 11/11/11 13/13/13 10/10/10
f 13/13/13 14/14/14 10/10/10
f 17/17/17 16/16/16 15/15/15
f 16/16/16 18/18/18 15/15/15
f 18/18/18 19/19/19 15/15/15
f 20/20/20 19/19/19 18/18/18
f 23/23/23 22/22/22 21/21/21
f 22/22/22 24/24/24 21/21/21
f 24/24/24 25/25/25 21/21/21
f 28/28/28 27/27/27 26/26/26
f 29/29/29 26/26/26 27/27/27
f 32/32/32 31/31/31 30/30/30
f 31/31/31 33/33/33 30/30/30
f 33/33/33 34/34/34 30/30/30
