g Box001_frag_017
v 2.0666096 2.3600914 -0.50575584
v 3.2954347 1.9831432 0.49424413
v 1.9058968 2.4071133 0.49424422
v 3.3602211 1.9653906 -0.50575584
v -2.744824 2.3925629 -0.50575584
v 1.9058968 2.4071133 0.49424422
v -3.0187874 2.4403481 0.49424413
v 2.0666096 2.3600914 -0.50575584
v -0.648883 -4.7967668 0.49424413
v -2.744824 2.3925629 -0.50575584
v -3.0187874 2.4403481 0.49424413
v -0.45654917 -4.595276 -0.50575584
v 3.3602211 1.9653906 -0.50575584
v -2.744824 2.3925629 -0.50575584
v -0.45654917 -4.595276 -0.50575584
v 2.0666096 2.3600914 -0.50575584
v -3.0187874 2.4403481 0.49424413
v 3.2954347 1.9831432 0.49424413
v -0.648883 -4.7967668 0.49424413
v 1.9058968 2.4071133 0.49424422
v -0.45654917 -4.595276 -0.50575584
v 3.2954347 1.9831432 0.49424413
v 3.3602211 1.9653906 -0.50575584
v -0.648883 -4.7967668 0.49424413
vt 0.00010901869 0.18539238
vt 0.007988999 0.19550854
vt 0.007982273 0.18406934
vt 0.00011528103 0.19604187
vt 1.1732661E-05 0.13943997
vt 0.0078827115 0.17606063
vt 0.007894721 0.13728271
vt 0 0.17732613
vt 0.05996273 0.0081078075
vt 0.0010289049 0
vt 0 0.008107807
vt 0.058926273 4.674684E-10
vt 0.118017904 0.3234403
vt 0.3441307 0.33411962
vt 0.25937974 0.15942363
vt 0.16592945 0.33330786
vt 0.6457225 0.33531427
vt 0.87958264 0.32388413
vt 0.7334968 0.15438639
vt 0.82811826 0.33448339
vt 0.0021329164 0
vt 0.06176202 0.007890594
vt 0.06189772 0
vt 0 0.007890594
vn 0.291833 0.95646733 0.0019269881
vn -0 0 1
vn -0 0 1
vn 0.29183298 0.95646733 0.0019269881
vn -0 0 -1
vn 0.0067415307 0.99892384 -0.04588766
vn 0.006741396 0.99892384 -0.04588703
vn -0 0 -1
vn -0.92293966 -0.30223075 -0.23840927
vn -0 0 -1
vn -0.9229396 -0.3022307 -0.23840944
vn -0 0 -1
vn -0 0 -1
vn -0 0 -1
vn -0 0 -1
vn -0 0 -1
vn -0 0 1
vn -0 0 1
vn -0 0 1
vn -0 0 1
vn 0.8625521 -0.50180304 0.06478922
vn -0 0 1
vn 0.862552 -0.5018031 0.06479008
vn -0 0 1
g Box001_frag_017_0
f 3/3/3 2/2/2 1/1/1
f 4/4/4 1/1/1 2/2/2
f 7/7/7 6/6/6 5/5/5
f 8/8/8 5/5/5 6/6/6
f 11/11/11 10/10/10 9/9/9
f 12/12/12 9/9/9 10/10/10
f 15/15/15 14/14/14 13/13/13
f 16/16/16 13/13/13 14/14/14
f 19/19/19 18/18/18 17/17/17
f 20/20/20 17/17/17 18/18/18
f 23/23/23 22/22/22 21/21/21
f 24/24/24 21/21/21 22/22/22
