g Box001_frag_005
v 7.315923 2.1085746 -0.2500089
v 0.76614445 -5.886771 0.24999106
v 7.3185697 2.1052234 0.24999106
v 0.75939584 -5.8884206 -0.2500089
v -4.073465 -7.09712 -0.025926095
v -4.0734663 6.434867 0.24999106
v -4.073465 -7.097142 0.24999106
v -4.073465 6.435591 -0.19508497
v -4.073465 -7.097103 -0.2500089
v -4.073465 6.4356785 -0.2500089
v -4.0734663 6.434867 0.24999106
v 0.76614445 -5.886771 0.24999106
v -4.073465 -7.097142 0.24999106
v 7.3185697 2.1052234 0.24999106
v -2.604108 6.5260544 0.24999106
v -2.6014266 6.5270343 -0.2500089
v 7.3185697 2.1052234 0.24999106
v -2.604108 6.5260544 0.24999106
v 7.315923 2.1085746 -0.2500089
v -4.073465 6.435591 -0.19508497
v -2.604108 6.5260544 0.24999106
v -4.0734663 6.434867 0.24999106
v -4.073465 6.4356785 -0.2500089
v -2.6014266 6.5270343 -0.2500089
v -4.073465 6.4356785 -0.2500089
v 7.315923 2.1085746 -0.2500089
v -2.6014266 6.5270343 -0.2500089
v -4.073465 -7.097103 -0.2500089
v 0.75939584 -5.8884206 -0.2500089
v 0.75939584 -5.8884206 -0.2500089
v -4.073465 -7.097142 0.24999106
v 0.76614445 -5.886771 0.24999106
v -4.073465 -7.09712 -0.025926095
v -4.073465 -7.097103 -0.2500089
vt 0.78169495 0.00049957633
vt 0.58201104 0.9995004
vt 0.7816112 0.9995004
vt 0.58196986 0.00049957633
vt 0.4482174 0.44821745
vt 0.11025572 0.9995004
vt 0.448218 0.9995004
vt 0.11023766 0.11023775
vt 0.44821697 0.00049957633
vt 0.11023545 0.00049957633
vt 0.00049984455 0.8897443
vt 0.17956543 0.58201104
vt 0.00049975514 0.551782
vt 0.4220054 0.7816112
vt 0.054866105 0.89202166
vt 0.9450347 0.00049957633
vt 0.5779946 0.9995004
vt 0.9451339 0.9995004
vt 0.5780925 0.00049957633
vt 0.99950016 0.11023775
vt 0.9451339 0.9995004
vt 0.99950016 0.9995004
vt 0.99950016 0.00049957633
vt 0.9450347 0.00049957633
vt 0.99950016 0.88976455
vt 0.5780925 0.78169495
vt 0.9450347 0.8920461
vt 0.9995003 0.551783
vt 0.8206843 0.58196986
vt 0.17931572 0.00049957633
vt 0.00049975514 0.9995004
vt 0.17956543 0.9995004
vt 0.00049975514 0.44821745
vt 0.00049975514 0.00049957633
vn -0 0 -1
vn 0.7732887 -0.63399917 -0.008345561
vn 0.7732888 -0.63399905 -0.0083423
vn -0 0 -1
vn -1 0 0
vn -1 0 0
vn -1 0 0
vn -1 0 0
vn -1 0 0
vn -1 0 0
vn -0 0 1
vn -0 0 1
vn -0 0 1
vn -0 0 1
vn -0 0 1
vn 0.4069618 0.9134365 0.003968429
vn -0 0 1
vn -0 0 1
vn 0.40696174 0.9134365 0.003968429
vn -1 0 0
vn -0.06194017 0.9980786 0.0016240167
vn -1 0 0
vn -1 0 0
vn -0.061941534 0.99807847 0.0016237062
vn -0 0 -1
vn -0 0 -1
vn -0 0 -1
vn -0 0 -1
vn -0 0 -1
vn -0 0 -1
vn -0 0 1
vn -0 0 1
vn -0 0 -1
vn -0 0 -1
g Box001_frag_005_0
f 3/3/3 2/2/2 1/1/1
f 4/4/4 1/1/1 2/2/2
f 7/7/7 6/6/6 5/5/5
f 6/6/6 8/8/8 5/5/5
f 5/5/5 8/8/8 9/9/9
f 8/8/8 10/10/10 9/9/9
f 13/13/13 12/12/12 11/11/11
f 12/12/12 14/14/14 11/11/11
f 14/14/14 15/15/15 11/11/11
f 18/18/18 17/17/17 16/16/16
f 19/19/19 16/16/16 17/17/17
f 22/22/22 21/21/21 20/20/20
f 21/21/21 23/23/23 20/20/20
f 24/24/24 23/23/23 21/21/21
f 27/27/27 26/26/26 25/25/25
f 26/26/26 28/28/28 25/25/25
f 29/29/29 28/28/28 26/26/26
f 32/32/32 31/31/31 30/30/30
f 31/31/31 33/33/33 30/30/30
f 33/33/33 34/34/34 30/30/30
