g Box001_frag_006
v 7.2249374 5.0281754 -0.25005186
v 0.33705366 -5.1760974 -0.25005186
v 7.2249374 -6.835371 -0.25005186
v -8.660649 5.0281754 -0.25005186
v -7.6682982 -3.24763 -0.25005186
v -7.6734824 -3.2558417 0.2499481
v 0.3315598 -5.184236 0.2499481
v 7.2249374 -6.8420234 0.10157068
v 7.2249374 -6.844831 0.24994814
v -8.666818 5.0281754 0.24994814
v 0.3315598 -5.184236 0.2499481
v -7.6734824 -3.2558417 0.2499481
v 7.2249374 5.0281754 0.24994814
v 7.2249374 -6.844831 0.24994814
v 7.2249374 -6.835371 -0.25005186
v 7.2249374 5.0281754 0.24994814
v 7.2249374 5.0281754 -0.25005186
v 7.2249374 -6.8420234 0.10157068
v 7.2249374 -6.844831 0.24994814
v -8.666818 5.0281754 0.24994814
v 7.2249374 5.0281754 -0.25005186
v 7.2249374 5.0281754 0.24994814
v -8.664279 5.0281754 0.044192906
v -8.660649 5.0281754 -0.25005186
v -8.664279 5.0281754 0.044192906
v -7.6682982 -3.24763 -0.25005186
v -8.660649 5.0281754 -0.25005186
v -8.666818 5.0281754 0.24994814
v -7.6734824 -3.2558417 0.2499481
vt 0.0004994869 0.99950033
vt 0.25535142 0.74464846
vt 0.00049960613 0.703208
vt 0.5882666 0.99950045
vt 0.5515497 0.792812
vt 0.5517415 0.79260695
vt 0.25555474 0.7444452
vt 0.00049960613 0.7030419
vt 0.00049960613 0.70297176
vt 0.41150516 0.99950045
vt 0.74444526 0.7444452
vt 0.44825852 0.79260695
vt 0.9995005 0.99950033
vt 0.9995004 0.70297176
vt 0.703208 0.00049957633
vt 0.99950033 0.9995004
vt 0.99950033 0.00049957633
vt 0.7030419 0.70304203
vt 0.70297176 0.9995004
vt 0.58849484 0.9995004
vt 0.0004994869 0.00049957633
vt 0.0004994869 0.9995004
vt 0.5884009 0.5884011
vt 0.5882666 0.00049957633
vt 0.0004995465 0.5884011
vt 0.20718801 0.00049957633
vt 0.0004995465 0.00049957633
vt 0.0004995465 0.9995004
vt 0.20739305 0.99950033
vn -0 0 -1
vn -0 0 -1
vn -0 0 -1
vn -0 0 -1
vn -0 0 -1
vn -0.23415823 -0.97202444 -0.018394373
vn -0.23415796 -0.97202456 -0.018391898
vn -0.23415796 -0.97202456 -0.0183919
vn -0.23415796 -0.97202456 -0.0183919
vn -0 0 1
vn -0 0 1
vn -0 0 1
vn -0 0 1
vn -0 0 1
vn 1 0 0
vn 1 0 0
vn 1 0 0
vn 1 0 0
vn 1 0 0
vn -0 1 0
vn -0 1 0
vn -0 1 0
vn -0 1 0
vn -0 1 0
vn -0.99281293 -0.1190481 -0.012247551
vn -0 0 -1
vn -0 0 -1
vn -0.99281293 -0.11904804 -0.01224931
vn -0.99281293 -0.119048074 -0.01224885
g Box001_frag_006_0
f 3/3/3 2/2/2 1/1/1
f 2/2/2 4/4/4 1/1/1
f 5/5/5 4/4/4 2/2/2
f 5/5/5 2/2/2 6/6/6
f 6/6/6 2/2/2 7/7/7
f 7/7/7 2/2/2 8/8/8
f 2/2/2 3/3/3 8/8/8
f 9/9/9 7/7/7 8/8/8
f 12/12/12 11/11/11 10/10/10
f 11/11/11 13/13/13 10/10/10
f 14/14/14 13/13/13 11/11/11
f 17/17/17 16/16/16 15/15/15
f 16/16/16 18/18/18 15/15/15
f 19/19/19 18/18/18 16/16/16
f 22/22/22 21/21/21 20/20/20
f 21/21/21 23/23/23 20/20/20
f 24/24/24 23/23/23 21/21/21
f 27/27/27 26/26/26 25/25/25
f 26/26/26 28/28/28 25/25/25
f 29/29/29 28/28/28 26/26/26
