g Box001_frag_002
v 1.9030737 -4.988813 0.502
v 3.4313636 -0.58581513 0.502
v 4.528568 -4.2807493 0.502
v 0.99788 -4.190975 0.502
v 2.1204531 3.8287935 0.502
v -5.552335 1.5823843 0.502
v -5.552335 3.105348 0.502
v -5.552335 1.5751154 0.1152471
v -5.552335 3.105348 0.502
v -5.552335 1.5823843 0.502
v -5.552335 3.1027708 0.07705573
v -5.552335 1.5635885 -0.498
v -5.552335 3.0992875 -0.498
v 3.5241396 -0.44836894 -0.498
v 1.906385 -5.0105267 -0.498
v 4.658468 -4.268324 -0.498
v 0.9899256 -4.20276 -0.498
v 2.252156 3.8351526 -0.498
v -5.552335 3.0992875 -0.498
v -5.552335 1.5635885 -0.498
v 2.252156 3.8351526 -0.498
v -5.552335 3.1027708 0.07705573
v -5.552335 3.0992875 -0.498
v -5.552335 3.105348 0.502
v 2.1204531 3.8287935 0.502
v 3.4313636 -0.58581513 0.502
v 4.658468 -4.268324 -0.498
v 4.528568 -4.2807493 0.502
v 2.1204531 3.8287935 0.502
v 3.5241396 -0.44836894 -0.498
v 2.252156 3.8351526 -0.498
v 4.528568 -4.2807493 0.502
v 1.906385 -5.0105267 -0.498
v 1.9030737 -4.988813 0.502
v 4.658468 -4.268324 -0.498
v 0.99788 -4.190975 0.502
v -5.552335 1.5751154 0.1152471
v -5.552335 1.5823843 0.502
v 1.9030737 -4.988813 0.502
v 0.9899256 -4.20276 -0.498
v -5.552335 1.5635885 -0.498
v 1.906385 -5.0105267 -0.498
vt 0.27612627 0.22265464
vt 0.33272958 0.33272958
vt 0.37336677 0.24035624
vt 0.24260059 0.24260059
vt 0.28417736 0.44309485
vt 0 0.3869346
vt 0 0.4250087
vt 0.61324716 0.61324716
vt 0.5749913 1
vt 0.61306536 1
vt 0.5750558 0.5750558
vt 0.61353534 0
vt 0.57514286 0
vt 0.6638343 0.33616573
vt 0.72375107 0.22211179
vt 0.6218221 0.24066687
vt 0.757694 0.24230596
vt 0.7109448 0.4432538
vt 1 0.42485717
vt 1 0.3864647
vt 3.5106652E-05 0.06172524
vt 0.0045280815 0
vt 0 0
vt 0.007874161 0
vt 0.007908675 0.06068361
vt 0.030546974 0.007938323
vt 0 1.7881393E-09
vt 0.00019737244 0.007938322
vt 0.06680787 0.007938323
vt 0.031376503 5.9604643E-10
vt 0.06656067 0
vt 0.00081207155 0.082211696
vt 0.008813957 0.060827293
vt 0.0009380883 0.060800284
vt 0.008681864 0.083271064
vt 0.0008542442 0.06874572
vt 0.0030458355 0
vt 0 4.7683715E-09
vt 0.00097229483 0.07824589
vt 0.008728612 0.06866224
vt 0.007875405 9.536743E-09
vt 0.008848132 0.07828065
vn -0 0 1
vn -0 0 1
vn -0 0 1
vn -0 0 1
vn -0 0 1
vn -0 0 1
vn -0 0 1
vn -1 0 0
vn -1 0 0
vn -1 0 0
vn -1 0 0
vn -1 0 0
vn -1 0 0
vn -0 0 -1
vn -0 0 -1
vn -0 0 -1
vn -0 0 -1
vn -0 0 -1
vn -0 0 -1
vn -0 0 -1
vn -0 0 -1
vn -0.09386935 0.9955663 -0.006030495
vn -0.09386933 0.9955663 -0.0060304943
vn -0.0938699 0.9955662 -0.0060382853
vn -0.09386912 0.9955663 -0.00603211
vn -0 0 1
vn 0.9508623 0.28235683 0.12702543
vn -0 0 1
vn -0 0 1
vn 0.95086217 0.28235662 0.127027
vn 0.95086217 0.28235668 0.12702672
vn -0 0 1
vn 0.26032275 -0.96527505 0.021822046
vn -0 0 1
vn 0.26032275 -0.96527505 0.021822046
vn -0 0 1
vn -0.6611539 -0.75011784 0.014098066
vn -0.6611539 -0.75011784 0.014098066
vn -0 0 1
vn -0.6611536 -0.750118 0.01409861
vn -0.6611538 -0.7501179 0.014099681
vn -0.66115355 -0.7501181 0.014098611
g Box001_frag_002_0
f 3/3/3 2/2/2 1/1/1
f 1/1/1 2/2/2 4/4/4
f 2/2/2 5/5/5 4/4/4
f 5/5/5 6/6/6 4/4/4
f 7/7/7 6/6/6 5/5/5
f 10/10/10 9/9/9 8/8/8
f 9/9/9 11/11/11 8/8/8
f 8/8/8 11/11/11 12/12/12
f 11/11/11 13/13/13 12/12/12
f 16/16/16 15/15/15 14/14/14
f 15/15/15 17/17/17 14/14/14
f 17/17/17 18/18/18 14/14/14
f 19/19/19 18/18/18 17/17/17
f 20/20/20 19/19/19 17/17/17
f 23/23/23 22/22/22 21/21/21
f 22/22/22 24/24/24 21/21/21
f 24/24/24 25/25/25 21/21/21
f 28/28/28 27/27/27 26/26/26
f 27/27/27 29/29/29 26/26/26
f 30/30/30 29/29/29 27/27/27
f 31/31/31 29/29/29 30/30/30
f 34/34/34 33/33/33 32/32/32
f 35/35/35 32/32/32 33/33/33
f 38/38/38 37/37/37 36/36/36
f 37/37/37 39/39/39 36/36/36
f 40/40/40 39/39/39 37/37/37
f 41/41/41 40/40/40 37/37/37
f 42/42/42 39/39/39 40/40/40
