g Box001_frag_009_frag_003
v 2.8645782 1.433382 -0.49692136
v 1.8396598 -0.08501525 -0.49692136
v 3.2710721 1.0598363 -0.4969213
v 0.8348304 -0.8886835 -0.49692136
v -2.245791 -1.3781732 -0.49692136
v -2.38262 0.16118202 -0.49692136
v -3.4757867 -1.5736109 -0.49692136
v 2.589652 1.686026 -0.49692136
v -2.38262 0.16118202 -0.49692136
v -3.363651 -1.5598785 -0.0704183
v -3.4757867 -1.5736109 -0.49692136
v -3.212868 -1.5414134 0.50307864
v -2.0968947 0.22957295 0.50307864
v 2.589652 1.686026 -0.49692136
v -2.0968947 0.22957295 0.50307864
v -2.38262 0.16118202 -0.49692136
v 2.6009183 1.6702474 0.5030785
v 2.8623183 1.430035 0.50307864
v 3.2936773 1.0344787 0.34832394
v 3.2978158 1.0298359 0.50307864
v 3.2917562 1.036634 0.27648324
v 2.6009183 1.6702474 0.5030785
v 2.8645782 1.433382 -0.49692136
v 3.2710721 1.0598363 -0.4969213
v 2.589652 1.686026 -0.49692136
v 1.7642715 -0.19670129 0.50307864
v 2.8623183 1.430035 0.50307864
v 3.2978158 1.0298359 0.50307864
v 0.9000676 -0.88789666 0.50307864
v -2.0968947 0.22957295 0.50307864
v 2.6009183 1.6702474 0.5030785
v -2.028523 -1.3532294 0.50307864
v -3.212868 -1.5414134 0.50307864
v -3.363651 -1.5598785 -0.0704183
v -2.245791 -1.3781732 -0.49692136
v -3.4757867 -1.5736109 -0.49692136
v -2.028523 -1.3532294 0.50307864
v 0.9000676 -0.88789666 0.50307864
v 0.8348304 -0.8886835 -0.49692136
v -3.212868 -1.5414134 0.50307864
v 1.7642715 -0.19670129 0.50307864
v 0.8348304 -0.8886835 -0.49692136
v 0.9000676 -0.88789666 0.50307864
v 3.2917562 1.036634 0.27648324
v 1.8396598 -0.08501525 -0.49692136
v 3.2710721 1.0598363 -0.4969213
v 3.2936773 1.0344787 0.34832394
v 3.2978158 1.0298359 0.50307864
vt 0.29972446 0.7002756
vt 0.33768442 0.66231567
vt 0.28466913 0.690937
vt 0.3749003 0.64222395
vt 0.4889974 0.6299867
vt 0.49406517 0.66847056
vt 0.5345528 0.62510073
vt 0.30990696 0.70659167
vt 0.0016550255 5.9604643E-10
vt 0.017238427 0.003428317
vt 0.017800637 3.3546335E-10
vt 0.016482458 0.008038199
vt 0 0.008038199
vt 0.00038851355 0.15345414
vt 0.008481588 0.11485657
vt 0.0006193828 0.11250338
vt 0.008263461 0.15354693
vt 0.007884835 0.0029158092
vt 0.006683209 0.0075286357
vt 0.007901929 0.007572894
vt 0.00611745 0.007508095
vt 0.007874574 0.00012047768
vt 1.0792017E-05 0.0029399872
vt 2.6748401E-05 0.0072869137
vt 0 0
vt 0.6595235 0.6595235
vt 0.70019186 0.70019186
vt 0.7163214 0.69018686
vt 0.62751585 0.64224356
vt 0.5165173 0.6701803
vt 0.69051033 0.7061972
vt 0.5190495 0.6306102
vt 0.47518495 0.62590563
vt 0.0045141233 0.00089403393
vt 0.0078859655 0.00980649
vt 0.0078712255 0
vt 1.4192462E-05 0.011538723
vt 4.9287275E-05 0.034887742
vt 0.007922882 0.034367625
vt 0 0.0020961952
vt 0.0002793205 0.009366465
vt 0.007863321 0
vt 0 0.0006574273
vt 0.0025595906 0.024759725
vt 0.008188093 0.010126191
vt 0.008650742 0.024551282
vt 0.0019937903 0.024779087
vt 0.000774979 0.024820793
vn -0 0 -1
vn -0 0 -1
vn -0 0 -1
vn -0 0 -1
vn -0 0 -1
vn -0 0 -1
vn -0 0 -1
vn -0 0 -1
vn -0.8287565 0.5222346 0.20108114
vn -0.8287565 0.5222347 0.20108113
vn -0.8287565 0.5222347 0.20108113
vn -0.8287566 0.5222346 0.20108086
vn -0.8287567 0.52223456 0.2010807
vn -0.2931426 0.95589197 0.018385137
vn -0.2931426 0.95589197 0.018385138
vn -0.29314283 0.9558919 0.018384002
vn -0.2931426 0.95589197 0.018385137
vn 0.6766309 0.73631144 0.003994717
vn 0.6766309 0.73631144 0.003994717
vn 0.676631 0.73631144 0.0039947173
vn 0.676631 0.73631144 0.0039949254
vn 0.6766306 0.73631173 0.003993617
vn 0.6766327 0.7363098 0.003994715
vn 0.6766308 0.7363117 0.003993653
vn 0.67663276 0.7363098 0.003994715
vn -0 0 1
vn -0 0 1
vn -0 0 1
vn -0 0 1
vn -0 0 1
vn -0 0 1
vn -0 0 1
vn -0 0 1
vn 0.15691747 -0.98756635 -0.009459038
vn -0 0 -1
vn -0 0 -1
vn 0.1569173 -0.98756635 -0.009459473
vn 0.15691741 -0.98756635 -0.009459475
vn -0 0 -1
vn 0.15691732 -0.9875665 -0.009459473
vn 0.62410015 -0.7803146 -0.040100597
vn -0 0 -1
vn 0.6241001 -0.7803146 -0.040100597
vn 0.6241 -0.7803148 -0.040100083
vn -0 0 -1
vn -0 0 -1
vn 0.62410015 -0.78031474 -0.040099878
vn 0.62410015 -0.78031474 -0.040099878
g Box001_frag_009_frag_003_0
f 3/3/3 2/2/2 1/1/1
f 2/2/2 4/4/4 1/1/1
f 4/4/4 5/5/5 1/1/1
f 5/5/5 6/6/6 1/1/1
f 7/7/7 6/6/6 5/5/5
f 6/6/6 8/8/8 1/1/1
f 11/11/11 10/10/10 9/9/9
f 10/10/10 12/12/12 9/9/9
f 12/12/12 13/13/13 9/9/9
f 16/16/16 15/15/15 14/14/14
f 17/17/17 14/14/14 15/15/15
f 20/20/20 19/19/19 18/18/18
f 19/19/19 21/21/21 18/18/18
f 21/21/21 22/22/22 18/18/18
f 23/23/23 22/22/22 21/21/21
f 24/24/24 23/23/23 21/21/21
f 25/25/25 22/22/22 23/23/23
f 28/28/28 27/27/27 26/26/26
f 26/26/26 27/27/27 29/29/29
f 27/27/27 30/30/30 29/29/29
f 31/31/31 30/30/30 27/27/27
f 29/29/29 30/30/30 32/32/32
f 30/30/30 33/33/33 32/32/32
f 36/36/36 35/35/35 34/34/34
f 35/35/35 37/37/37 34/34/34
f 38/38/38 37/37/37 35/35/35
f 39/39/39 38/38/38 35/35/35
f 37/37/37 40/40/40 34/34/34
f 43/43/43 42/42/42 41/41/41
f 42/42/42 44/44/44 41/41/41
f 45/45/45 44/44/44 42/42/42
f 46/46/46 44/44/44 45/45/45
f 44/44/44 47/47/47 41/41/41
f 47/47/47 48/48/48 41/41/41
