g Box001_frag_018_frag_003
v 0.2914254 2.1203375 0.50098586
v 3.1400936 0.10445886 0.02793693
v 3.137163 0.081011586 0.50098586
v 0.31133106 2.160076 -0.49901414
v 3.143357 0.13057706 -0.49901414
v -3.7531126 -1.7128 -0.49747032
v 0.2914254 2.1203375 0.50098586
v -3.73747 -1.7186345 0.50098586
v -3.7531376 -1.7127908 -0.49901414
v 0.31133106 2.160076 -0.49901414
v 2.4431546 -0.42652163 -0.49901414
v -1.8730959 -1.4156264 -0.49901414
v 1.9618424 -0.80946577 -0.49901414
v 0.31133106 2.160076 -0.49901414
v -3.7531376 -1.7127908 -0.49901414
v 3.143357 0.13057706 -0.49901414
v 2.0188046 -0.8087824 0.50098586
v -3.7531126 -1.7128 -0.49747032
v -3.73747 -1.7186345 0.50098586
v -1.8730959 -1.4156264 -0.49901414
v -3.7531376 -1.7127908 -0.49901414
v 1.9618424 -0.80946577 -0.49901414
v -3.73747 -1.7186345 0.50098586
v 3.137163 0.081011586 0.50098586
v 2.0188046 -0.8087824 0.50098586
v 0.2914254 2.1203375 0.50098586
v 2.0188046 -0.8087824 0.50098586
v 2.4431546 -0.42652163 -0.49901414
v 1.9618424 -0.80946577 -0.49901414
v 3.1400936 0.10445886 0.02793693
v 3.143357 0.13057706 -0.49901414
v 3.137163 0.081011586 0.50098586
vt 0.008753282 0.027613416
vt 0.005889858 0.0551952
vt 0.009619189 0.055166826
vt 0.00087384967 0.027806148
vt 0.0017355843 0.05522679
vt 0.0006454165 6.800968E-05
vt 0.007878817 0.044052858
vt 0.008506536 0.00023812252
vt 0.0006332616 6.774771E-05
vt 0 0.044269342
vt 0.4954263 0.8585311
vt 0.6552874 0.83380353
vt 0.5132527 0.8489575
vt 0.5743827 0.9231961
vt 0.72491854 0.8263744
vt 0.46949285 0.8724586
vt 5.9603968E-05 0.046012558
vt 0.007861971 1.9788742E-07
vt 0 0.00012489795
vt 0.007893594 0.014987249
vt 0.007874127 0
vt 0.007933304 0.04555847
vt 0.27566174 0.8262284
vt 0.5302778 0.8712195
vt 0.4888571 0.8489747
vt 0.4248801 0.92220265
vt 0 0.0005729437
vt 0.008000405 0.0048411824
vt 0.007865943 0
vt 0.004041752 0.011851204
vt 0.008196016 0.011884024
vt 0.00031242997 0.011821723
vn 0.581936 0.81205124 0.043855682
vn 0.581936 0.81205124 0.04385567
vn 0.581936 0.81205124 0.043855675
vn 0.58193576 0.8120515 0.043853424
vn 0.5819359 0.8120514 0.043852966
vn -0.6897967 0.7238404 0.015352872
vn -0.6897967 0.7238404 0.015352872
vn -0.6897589 0.723883 0.015036427
vn -0.68979657 0.7238404 0.015352871
vn -0.6897588 0.7238831 0.015035823
vn -0 0 -1
vn -0 0 -1
vn -0 0 -1
vn -0 0 -1
vn -0 0 -1
vn -0 0 -1
vn 0.15611915 -0.98770404 -0.00821758
vn -0 0 -1
vn 0.15611914 -0.98770404 -0.008217579
vn -0 0 -1
vn -0 0 -1
vn -0 0 -1
vn -0 0 1
vn -0 0 1
vn -0 0 1
vn -0 0 1
vn 0.6222259 -0.7820591 -0.034908857
vn -0 0 -1
vn -0 0 -1
vn 0.6222258 -0.7820591 -0.034908827
vn -0 0 -1
vn 0.6222258 -0.7820591 -0.034908827
g Box001_frag_018_frag_003_0
f 3/3/3 2/2/2 1/1/1
f 2/2/2 4/4/4 1/1/1
f 5/5/5 4/4/4 2/2/2
f 8/8/8 7/7/7 6/6/6
f 6/6/6 7/7/7 9/9/9
f 7/7/7 10/10/10 9/9/9
f 13/13/13 12/12/12 11/11/11
f 12/12/12 14/14/14 11/11/11
f 15/15/15 14/14/14 12/12/12
f 14/14/14 16/16/16 11/11/11
f 19/19/19 18/18/18 17/17/17
f 18/18/18 20/20/20 17/17/17
f 21/21/21 20/20/20 18/18/18
f 20/20/20 22/22/22 17/17/17
f 25/25/25 24/24/24 23/23/23
f 26/26/26 23/23/23 24/24/24
f 29/29/29 28/28/28 27/27/27
f 28/28/28 30/30/30 27/27/27
f 31/31/31 30/30/30 28/28/28
f 30/30/30 32/32/32 27/27/27
