g Box001_frag_004
v -3.2303538 3.0867712 0.25006202
v 8.15315 -2.3102853 0.25006202
v -10.795074 -2.3102853 0.25006196
v 7.2783346 2.418251 0.25006202
v 8.157754 -2.3102853 0.13029303
v 7.297951 2.4160771 -0.24993798
v 8.172364 -2.3102853 -0.24993798
v -10.8006 -2.3102853 -0.2207876
v -3.2303538 3.0867712 0.25006202
v -10.795074 -2.3102853 0.25006196
v -10.800941 -2.3102853 -0.24993798
v -3.2369347 3.0862615 -0.24993798
v 8.157754 -2.3102853 0.13029303
v -10.795074 -2.3102853 0.25006196
v 8.15315 -2.3102853 0.25006202
v -10.8006 -2.3102853 -0.2207876
v 8.172364 -2.3102853 -0.24993798
v -10.800941 -2.3102853 -0.24993798
v -3.2369347 3.0862615 -0.24993798
v 8.172364 -2.3102853 -0.24993798
v 7.297951 2.4160771 -0.24993798
v -10.800941 -2.3102853 -0.24993798
v -3.2303538 3.0867712 0.25006202
v 7.297951 2.4160771 -0.24993798
v 7.2783346 2.418251 0.25006202
v -3.2369347 3.0862615 -0.24993798
vt 0.33884132 0.13529122
vt 0.76003116 0.0004995465
vt 0.05894643 0.00049966574
vt 0.72766304 0.118594855
vt 0.7602015 0.0004995465
vt 0.72838885 0.118540555
vt 0.7607421 0.0004995465
vt 0.99950033 0.058742046
vt 0.8647088 0.9995004
vt 0.99950033 0.99950033
vt 0.99950033 0.0004995465
vt 0.86472154 0.0004995465
vt 0.7602015 0.7602018
vt 0.05894643 0.99950033
vt 0.76003116 0.9995004
vt 0.058741987 0.058742046
vt 0.7607421 0.0004995465
vt 0.05872935 0.0004995465
vt 0.66140217 0.1352785
vt 0.23925787 0.0004995465
vt 0.27161115 0.118540555
vt 0.94127065 0.00049966574
vt 0.6611587 0.9995004
vt 0.27161115 0.0004995465
vt 0.27233696 0.9995004
vt 0.66140217 0.0004995465
vn -0 0 1
vn -0 0 1
vn -0 0 1
vn -0 0 1
vn -0 0 1
vn 0.98261213 0.18179072 0.037756674
vn 0.98261213 0.18179074 0.037756674
vn -0.58077466 0.8140359 0.006815293
vn -0 0 1
vn -0 0 1
vn -0.5807741 0.81403625 0.0068048127
vn -0.58077466 0.81403595 0.006813853
vn -0 -1 0
vn -0 -1 0
vn -0 -1 0
vn -0 -1 0
vn -0 -1 0
vn -0 -1 0
vn -0 0 -1
vn -0 0 -1
vn -0 0 -1
vn -0 0 -1
vn 0.06348728 0.997981 -0.0018533467
vn -0 0 -1
vn 0.06348751 0.997981 -0.0018484833
vn -0 0 -1
g Box001_frag_004_0
f 3/3/3 2/2/2 1/1/1
f 4/4/4 1/1/1 2/2/2
f 4/4/4 2/2/2 5/5/5
f 6/6/6 4/4/4 5/5/5
f 7/7/7 6/6/6 5/5/5
f 10/10/10 9/9/9 8/8/8
f 9/9/9 11/11/11 8/8/8
f 12/12/12 11/11/11 9/9/9
f 15/15/15 14/14/14 13/13/13
f 14/14/14 16/16/16 13/13/13
f 16/16/16 17/17/17 13/13/13
f 18/18/18 17/17/17 16/16/16
f 21/21/21 20/20/20 19/19/19
f 22/22/22 19/19/19 20/20/20
f 25/25/25 24/24/24 23/23/23
f 26/26/26 23/23/23 24/24/24
