g Box001_frag_009_frag_001
v -6.4388094 -4.4725895 0.25007978
v -3.5636137 -6.8143244 0.25007978
v -6.614683 -5.2788625 0.25007978
v 6.187297 -4.19139 0.25007978
v -5.6380982 -0.80183387 0.25007978
v -0.7060806 6.504859 0.25007978
v 6.187297 4.8442626 0.25007978
v -3.8776145 7.268873 0.25007978
v -3.5950797 -6.8223286 -0.2499202
v 6.187297 -4.19115 -0.011275461
v 6.187297 -4.1909304 -0.2499202
v 6.187297 -4.19139 0.25007978
v -3.5636137 -6.8143244 0.25007978
v 6.187297 -4.19115 -0.011275461
v 6.187297 4.853723 -0.2499202
v 6.187297 -4.1909304 -0.2499202
v 6.187297 4.847069 0.101702295
v 6.187297 -4.19139 0.25007978
v 6.187297 4.8442626 0.25007978
v -0.7060806 6.504859 0.25007978
v 6.187297 4.847069 0.101702295
v 6.187297 4.8442626 0.25007978
v -3.8776145 7.268873 0.25007978
v -3.8781323 7.2699084 0.20194668
v -3.8808577 7.275358 -0.051414747
v -0.700588 6.5129957 -0.2499202
v 6.187297 4.853723 -0.2499202
v -3.8829932 7.2796288 -0.2499202
v -3.5636137 -6.8143244 0.25007978
v -6.6180034 -5.283987 0.10753132
v -6.614683 -5.2788625 0.25007978
v -6.6224446 -5.2908416 -0.08313705
v -6.6263294 -5.296839 -0.2499202
v -3.5950797 -6.8223286 -0.2499202
v -0.700588 6.5129957 -0.2499202
v 6.187297 -4.1909304 -0.2499202
v 6.187297 4.853723 -0.2499202
v -6.449944 -4.4882264 -0.2499202
v -6.6263294 -5.296839 -0.2499202
v -3.5950797 -6.8223286 -0.2499202
v -5.649511 -0.81874216 -0.24992022
v -4.5414033 4.261234 -0.2499202
v -3.930412 7.062244 -0.2499202
v -3.8829932 7.2796288 -0.2499202
v -6.6180034 -5.283987 0.10753132
v -6.4388094 -4.4725895 0.25007978
v -6.614683 -5.2788625 0.25007978
v -6.6224446 -5.2908416 -0.08313705
v -3.930412 7.062244 -0.2499202
v -3.8781323 7.2699084 0.20194668
v -5.6380982 -0.80183387 0.25007978
v -3.8776145 7.268873 0.25007978
v -3.8808577 7.275358 -0.051414747
v -3.8829932 7.2796288 -0.2499202
v -4.5414033 4.261234 -0.2499202
v -5.649511 -0.81874216 -0.24992022
v -6.449944 -4.4882264 -0.2499202
v -6.6263294 -5.296839 -0.2499202
vt 0.5323341 0.4702832
vt 0.63871634 0.41179833
vt 0.52582675 0.45014656
vt 0.99950033 0.47730613
vt 0.56196046 0.56196046
vt 0.74444526 0.7444452
vt 0.9995004 0.70297176
vt 0.62709844 0.7635265
vt 0.63755214 0.00049957633
vt 0.99950033 0.4773122
vt 0.99950033 0.00049957633
vt 0.99950033 0.9995004
vt 0.63871634 0.9995004
vt 0.4773121 0.4773122
vt 0.703208 0.00049957633
vt 0.4773176 0.00049957633
vt 0.7030418 0.703042
vt 0.47730613 0.9995004
vt 0.70297176 0.9995004
vt 0.74444526 0.7444452
vt 0.9995004 0.7030418
vt 0.9995004 0.70297176
vt 0.62709844 0.7635265
vt 0.6270793 0.76355237
vt 0.62697846 0.76368845
vt 0.7446485 0.74464846
vt 0.9995004 0.703208
vt 0.6268994 0.76379514
vt 0.63871634 0.41179833
vt 0.5257039 0.45001855
vt 0.52582675 0.45014656
vt 0.5255396 0.44984737
vt 0.5253958 0.44969758
vt 0.63755214 0.4115984
vt 0.25535148 0.74464846
vt 0.00049966574 0.4773176
vt 0.00049960613 0.703208
vt 0.4680779 0.46989268
vt 0.4746042 0.44969758
vt 0.36244786 0.4115984
vt 0.43846184 0.56153816
vt 0.39746177 0.68841064
vt 0.37485504 0.7583659
vt 0.37310058 0.76379514
vt 0.5499815 0.71468836
vt 0.5297168 0.9995004
vt 0.54985344 0.9995004
vt 0.55015266 0.3337326
vt 0.24163407 0.00049957633
vt 0.23644763 0.90333045
vt 0.43803954 0.9995004
vt 0.2364735 0.9995004
vt 0.23631155 0.39711383
vt 0.23620486 0.00049957633
vt 0.31158936 0.00049957633
vt 0.43846184 0.0004995465
vt 0.5301073 0.00049957633
vt 0.5503024 0.00049957633
vn -0 0 1
vn -0 0 1
vn -0 0 1
vn -0 0 1
vn -0 0 1
vn -0 0 1
vn -0 0 1
vn -0 0 1
vn 0.25975996 -0.96567285 -0.000889526
vn 0.25976 -0.96567285 -0.000889526
vn 0.25976 -0.96567285 -0.000889526
vn 0.25975993 -0.96567285 -0.0008860696
vn 0.25975996 -0.96567285 -0.00088779343
vn 1 0 0
vn 1 0 0
vn 1 0 0
vn 1 0 0
vn 1 0 0
vn 1 0 0
vn 0.23415816 0.9720247 0.018383961
vn 0.23415814 0.9720247 0.01838396
vn 0.23415816 0.9720247 0.018383961
vn 0.23415813 0.9720247 0.018381812
vn 0.23415826 0.97202456 0.018388774
vn 0.23415825 0.97202456 0.018388774
vn 0.23415819 0.97202456 0.018392622
vn 0.23415804 0.97202444 0.018394714
vn 0.23415817 0.97202444 0.018392622
vn -0.44913077 -0.892452 0.042554937
vn -0.44913003 -0.89245284 0.04254531
vn -0.4491301 -0.89245296 0.042542964
vn -0.44913077 -0.892452 0.042554937
vn -0.44913077 -0.892452 0.042554937
vn -0.4491305 -0.8924523 0.042552225
vn -0 0 -1
vn -0 0 -1
vn -0 0 -1
vn -0 0 -1
vn -0 0 -1
vn -0 0 -1
vn -0 0 -1
vn -0 0 -1
vn -0 0 -1
vn -0 0 -1
vn -0.9769146 0.2130969 0.01509076
vn -0 0 1
vn -0 0 1
vn -0.9769146 0.21309645 0.015093385
vn -0.9769146 0.21309677 0.015089079
vn -0 0 1
vn -0 0 1
vn -0 0 1
vn -0.9769146 0.21309659 0.01509446
vn -0.9769146 0.21309662 0.015094461
vn -0.9769146 0.21309684 0.015091816
vn -0.9769146 0.21309677 0.0150905885
vn -0.97691447 0.21309696 0.015091709
vn -0.97691447 0.213097 0.015091711
g Box001_frag_009_frag_001_0
f 3/3/3 2/2/2 1/1/1
f 2/2/2 4/4/4 1/1/1
f 4/4/4 5/5/5 1/1/1
f 6/6/6 5/5/5 4/4/4
f 7/7/7 6/6/6 4/4/4
f 8/8/8 5/5/5 6/6/6
f 11/11/11 10/10/10 9/9/9
f 10/10/10 12/12/12 9/9/9
f 12/12/12 13/13/13 9/9/9
f 16/16/16 15/15/15 14/14/14
f 15/15/15 17/17/17 14/14/14
f 17/17/17 18/18/18 14/14/14
f 19/19/19 18/18/18 17/17/17
f 22/22/22 21/21/21 20/20/20
f 21/21/21 23/23/23 20/20/20
f 24/24/24 23/23/23 21/21/21
f 25/25/25 24/24/24 21/21/21
f 26/26/26 25/25/25 21/21/21
f 27/27/27 26/26/26 21/21/21
f 28/28/28 25/25/25 26/26/26
f 31/31/31 30/30/30 29/29/29
f 30/30/30 32/32/32 29/29/29
f 32/32/32 33/33/33 29/29/29
f 33/33/33 34/34/34 29/29/29
f 37/37/37 36/36/36 35/35/35
f 36/36/36 38/38/38 35/35/35
f 39/39/39 38/38/38 36/36/36
f 40/40/40 39/39/39 36/36/36
f 38/38/38 41/41/41 35/35/35
f 41/41/41 42/42/42 35/35/35
f 42/42/42 43/43/43 35/35/35
f 35/35/35 43/43/43 44/44/44
f 47/47/47 46/46/46 45/45/45
f 46/46/46 48/48/48 45/45/45
f 49/49/49 48/48/48 46/46/46
f 50/50/50 49/49/49 46/46/46
f 51/51/51 50/50/50 46/46/46
f 52/52/52 50/50/50 51/51/51
f 53/53/53 49/49/49 50/50/50
f 54/54/54 49/49/49 53/53/53
f 55/55/55 48/48/48 49/49/49
f 56/56/56 48/48/48 55/55/55
f 57/57/57 48/48/48 56/56/56
f 58/58/58 48/48/48 57/57/57
