g Box001_frag_002
v 4.9302545 -6.3279552 0.25009087
v 4.804699 1.6361883 0.25009087
v 6.301813 -3.4054813 0.25009084
v -2.6344662 -11.725012 0.25009087
v -4.2141104 -11.725012 0.25009087
v -4.2141104 10.348337 0.25009087
v 2.2738764 10.158958 0.25009087
v 0.6254984 11.558708 0.25009087
v 6.3198104 -3.3536203 -0.24990912
v 4.8278933 1.6705496 -0.24990912
v 2.3214655 10.11117 -0.24990912
v -4.2141104 -11.725012 -0.24990912
v -2.6399915 -11.725012 -0.22075877
v -2.640333 -11.725012 -0.24990912
v -4.2141104 -11.725012 0.25009087
v -2.6344662 -11.725012 0.25009087
v 4.923674 -6.328464 -0.24990912
v 6.301813 -3.4054813 0.25009084
v 6.3198104 -3.3536203 -0.24990912
v 4.9302545 -6.3279552 0.25009087
v -4.2141104 10.348378 -0.24990912
v -4.2141104 -11.725012 0.25009087
v -4.2141104 -11.725012 -0.24990912
v -4.2141104 10.348359 -0.025826268
v -4.2141104 10.348337 0.25009087
v -4.2141104 10.348359 -0.025826268
v 0.6254984 11.558708 0.25009087
v -4.2141104 10.348337 0.25009087
v -4.2141104 10.348378 -0.24990912
v 0.618751 11.557061 -0.24990912
v 2.2738764 10.158958 0.25009087
v 0.618751 11.557061 -0.24990912
v 2.3214655 10.11117 -0.24990912
v 0.6254984 11.558708 0.25009087
v 4.8278933 1.6705496 -0.24990912
v 4.923674 -6.328464 -0.24990912
v 6.3198104 -3.3536203 -0.24990912
v -4.2141104 -11.725012 -0.24990912
v -2.640333 -11.725012 -0.24990912
v -4.2141104 10.348378 -0.24990912
v 2.3214655 10.11117 -0.24990912
v 0.618751 11.557061 -0.24990912
v -2.6399915 -11.725012 -0.22075877
v 4.923674 -6.328464 -0.24990912
v -2.640333 -11.725012 -0.24990912
v -2.6344662 -11.725012 0.25009087
v 4.9302545 -6.3279552 0.25009087
vt 0.33884132 0.13529122
vt 0.33419582 0.33419588
vt 0.38958904 0.20828006
vt 0.05894643 0.00049966574
vt 0.0004995465 0.00049966574
vt 0.00049972534 0.551782
vt 0.2405554 0.54705226
vt 0.1795654 0.58201104
vt 0.39025494 0.2095753
vt 0.33505404 0.33505404
vt 0.24231622 0.54585874
vt 0.0004995465 0.00049957633
vt 0.058741987 0.058742046
vt 0.05872935 0.00049957633
vt 0.0004995465 0.99950045
vt 0.05894643 0.99950045
vt 0.13527852 0.00049957633
vt 0.20828006 0.9995004
vt 0.2095753 0.00049957633
vt 0.13529122 0.99950045
vt 0.44821692 0.00049957633
vt 0.99950033 0.99950045
vt 0.99950033 0.00049957633
vt 0.4482174 0.4482175
vt 0.448218 0.99950045
vt 0.9995003 0.4482175
vt 0.8204346 0.99950045
vt 0.9995003 0.99950045
vt 0.9995003 0.00049957633
vt 0.82068425 0.00049957633
vt 0.54705226 0.99950045
vt 0.5819699 0.00049957633
vt 0.54585874 0.00049957633
vt 0.58201104 0.99950045
vt 0.66494596 0.33505404
vt 0.66140217 0.13527852
vt 0.609745 0.2095753
vt 0.99950045 0.00049966574
vt 0.94127065 0.00049966574
vt 0.9995003 0.5517831
vt 0.75768375 0.54585874
vt 0.82068425 0.5819699
vt 0.00049966574 0.058742046
vt 0.13527852 0.00049957633
vt 0.00049966574 0.00049957633
vt 0.00049966574 0.99950045
vt 0.13529122 0.99950045
vn -0 0 1
vn -0 0 1
vn -0 0 1
vn -0 0 1
vn -0 0 1
vn -0 0 1
vn -0 0 1
vn -0 0 1
vn 0.9566686 0.28408095 0.06390037
vn 0.9566682 0.28408068 0.06390685
vn 0.9566684 0.28408104 0.06390222
vn -0 -1 0
vn -0 -1 0
vn -0 -1 0
vn -0 -1 0
vn -0 -1 0
vn -0 0 -1
vn 0.9052029 -0.4248245 -0.0114812935
vn -0 0 -1
vn 0.9052029 -0.4248245 -0.011481295
vn -1 0 0
vn -1 0 0
vn -1 0 0
vn -1 0 0
vn -1 0 0
vn -1 0 0
vn -0 0 1
vn -1 0 0
vn -1 0 0
vn -0.24262375 0.97012043 7.6461685E-05
vn 0.6472391 0.7622041 -0.011246741
vn -0 0 -1
vn -0 0 -1
vn 0.6472391 0.7622041 -0.011246742
vn -0 0 -1
vn -0 0 -1
vn -0 0 -1
vn -0 0 -1
vn -0 0 -1
vn -0 0 -1
vn -0 0 -1
vn -0 0 -1
vn 0.5807747 -0.81403595 -0.006804823
vn -0 0 -1
vn 0.58077466 -0.81403595 -0.006804823
vn 0.5807746 -0.8140359 -0.0068152924
vn 0.58077466 -0.8140359 -0.0068154726
g Box001_frag_002_0
f 3/3/3 2/2/2 1/1/1
f 2/2/2 4/4/4 1/1/1
f 5/5/5 4/4/4 2/2/2
f 6/6/6 5/5/5 2/2/2
f 7/7/7 6/6/6 2/2/2
f 8/8/8 6/6/6 7/7/7
f 3/3/3 9/9/9 2/2/2
f 9/9/9 7/7/7 2/2/2
f 10/10/10 7/7/7 9/9/9
f 11/11/11 7/7/7 10/10/10
f 14/14/14 13/13/13 12/12/12
f 13/13/13 15/15/15 12/12/12
f 16/16/16 15/15/15 13/13/13
f 19/19/19 18/18/18 17/17/17
f 20/20/20 17/17/17 18/18/18
f 23/23/23 22/22/22 21/21/21
f 22/22/22 24/24/24 21/21/21
f 25/25/25 24/24/24 22/22/22
f 28/28/28 27/27/27 26/26/26
f 27/27/27 29/29/29 26/26/26
f 30/30/30 29/29/29 27/27/27
f 33/33/33 32/32/32 31/31/31
f 34/34/34 31/31/31 32/32/32
f 37/37/37 36/36/36 35/35/35
f 36/36/36 38/38/38 35/35/35
f 39/39/39 38/38/38 36/36/36
f 38/38/38 40/40/40 35/35/35
f 40/40/40 41/41/41 35/35/35
f 42/42/42 41/41/41 40/40/40
f 45/45/45 44/44/44 43/43/43
f 44/44/44 46/46/46 43/43/43
f 47/47/47 46/46/46 44/44/44
