g Plane01
v 0.09165305 -0.091974534 -0.06349056
v 0.09662839 -0.06270483 0.08354185
v 0.11213648 0.008274659 0.0746487
v 0.11213648 -0.0003132236 -0.07510526
v 0.018540544 -0.1488107 -0.04312296
v 0.04019104 -0.10699202 0.09929352
v -0.07802634 -0.15089178 -0.017335314
v -0.026246099 -0.10881361 0.117008395
v -0.16348675 -0.09530062 0.01287105
v -0.077936344 -0.07745735 0.1347839
v -0.20559734 -0.0041218787 0.04459329
v -0.1047312 -0.022326242 0.15411325
v -0.19745182 0.09883871 0.07866241
v -0.09986484 0.035294406 0.17320819
v -0.1400289 0.18786284 0.11470677
v -0.06896614 0.08066443 0.19189864
v -0.0461661 0.24158955 0.15237013
v -0.022611918 0.10518543 0.21015519
v 0.063444525 0.24777907 0.19129592
v 0.027878575 0.10676861 0.22805327
v 0.16578254 0.20533377 0.23112218
v 0.07346289 0.088017024 0.24574636
v 0.24092041 0.12334559 0.2714823
v 0.1083929 0.05354699 0.26344374
v 0.27315873 0.027888358 0.30828094
v 0.12809938 -0.002481706 0.2851413
v 0.26581967 -0.081880845 0.34877864
v 0.12590131 -0.052397985 0.3034618
v 0.22145069 -0.1706289 0.38541985
v 0.09932865 -0.10703676 0.3259031
v 0.14945295 -0.23746064 0.42181894
v 0.053433765 -0.14832303 0.34877926
v 0.05151887 -0.27518073 0.46085584
v 0.001819303 -0.1673667 0.36917114
v -0.043328486 -0.27517295 0.49617884
v -0.06319163 -0.16775253 0.39338627
v -0.13104185 -0.24372779 0.53092813
v -0.12580094 -0.14485219 0.41825098
v -0.20186703 -0.18592222 0.56502855
v -0.17831032 -0.1007621 0.44381455
v -0.2500632 -0.10582773 0.5998994
v -0.21267393 -0.043605145 0.46863487
v -0.26759496 -0.02403429 0.6310351
v -0.2287283 0.03143626 0.4971979
v 0.032303892 -0.035066485 0.013791753
v 0.15597753 -0.11961288 0.0062595285
v 0.18639946 0.0069032535 -0.010301489
v 0.037873514 0.0010581815 0.009844929
v 0.0027672297 -0.05803824 0.02203046
v 0.055964354 -0.19776449 0.034140106
v -0.03592888 -0.058741223 0.032358564
v -0.068343565 -0.20096418 0.06731452
v -0.071480066 -0.038068213 0.044377007
v -0.169943 -0.13468976 0.10327795
v -0.094807126 0.009540622 0.06109384
v -0.21552141 -0.035988744 0.13761272
v -0.08989433 0.06471748 0.07939205
v -0.20742232 0.06941564 0.17247854
v -0.056944616 0.11307315 0.0993149
v -0.15205042 0.15545413 0.20729052
v -0.0022213112 0.14251786 0.120952584
v -0.06655671 0.2042571 0.24157272
v 0.06390573 0.14513968 0.1444094
v 0.027417373 0.20940799 0.27493978
v 0.12910633 0.11800995 0.1697804
v 0.11013907 0.17534085 0.3070881
v 0.18103467 0.0631832 0.19713451
v 0.16827863 0.11370937 0.3377915
v 0.2068682 -0.012267973 0.22626604
v 0.19438991 0.03767463 0.36715618
v 0.20160566 -0.0957533 0.2570316
v 0.19011532 -0.038525537 0.3952088
v 0.16368389 -0.1720417 0.2884951
v 0.15709545 -0.10562397 0.42282778
v 0.099454336 -0.23120104 0.32085186
v 0.10343238 -0.15458263 0.4497463
v 0.010914907 -0.26489803 0.35607514
v 0.04242327 -0.17764938 0.47395176
v -0.08127857 -0.26486382 0.39041057
v -0.025241546 -0.17806168 0.49915445
v -0.16967556 -0.23311295 0.425438
v -0.08716724 -0.15546703 0.523741
v -0.2437649 -0.17276283 0.46108237
v -0.13641237 -0.113921486 0.5477606
v -0.29800662 -0.081855394 0.50060105
v -0.1647305 -0.06757748 0.56793314
v -0.3167752 0.0055907103 0.53389055
v -0.17954807 0.0018112623 0.59434247
vt 0 0.04761905
vt 1 0.04761905
vt 1 0
vt 0 0
vt 0 0.0952381
vt 1 0.0952381
vt 0 0.14285715
vt 1 0.14285715
vt 0 0.1904762
vt 1 0.1904762
vt 0 0.23809524
vt 1 0.23809524
vt 0 0.2857143
vt 1 0.2857143
vt 0 0.33333334
vt 1 0.33333334
vt 0 0.3809524
vt 1 0.3809524
vt 0 0.42857143
vt 1 0.42857143
vt 0 0.47619048
vt 1 0.47619048
vt 0 0.52380955
vt 1 0.52380955
vt 0 0.5714286
vt 1 0.5714286
vt 0 0.61904764
vt 1 0.61904764
vt 0 0.6666667
vt 1 0.6666667
vt 0 0.71428573
vt 1 0.71428573
vt 0 0.7619048
vt 1 0.7619048
vt 0 0.8095238
vt 1 0.8095238
vt 0 0.85714287
vt 1 0.85714287
vt 0 0.9047619
vt 1 0.9047619
vt 0 0.95238096
vt 1 0.95238096
vt 0 1
vt 1 1
vt 0 0.04761905
vt 1 0.04761905
vt 1 0
vt 0 0
vt 0 0.0952381
vt 1 0.0952381
vt 0 0.14285715
vt 1 0.14285715
vt 0 0.1904762
vt 1 0.1904762
vt 0 0.23809524
vt 1 0.23809524
vt 0 0.2857143
vt 1 0.2857143
vt 0 0.33333334
vt 1 0.33333334
vt 0 0.3809524
vt 1 0.3809524
vt 0 0.42857143
vt 1 0.42857143
vt 0 0.47619048
vt 1 0.47619048
vt 0 0.52380955
vt 1 0.52380955
vt 0 0.5714286
vt 1 0.5714286
vt 0 0.61904764
vt 1 0.61904764
vt 0 0.6666667
vt 1 0.6666667
vt 0 0.71428573
vt 1 0.71428573
vt 0 0.7619048
vt 1 0.7619048
vt 0 0.8095238
vt 1 0.8095238
vt 0 0.85714287
vt 1 0.85714287
vt 0 0.9047619
vt 1 0.9047619
vt 0 0.95238096
vt 1 0.95238096
vt 0 1
vt 1 1
vn 0.8515382 -0.51896685 0.074540645
vn 0.8525783 -0.5173077 0.074182846
vn 0.97661144 -0.21472949 0.011018594
vn 0.97661144 -0.2147295 0.011018595
vn 0.38236675 -0.9007029 0.20622836
vn 0.37805864 -0.9022692 0.20732084
vn -0.14991502 -0.92661667 0.34482878
vn -0.15115397 -0.9262854 0.3451782
vn -0.54592866 -0.68328774 0.48485017
vn -0.5404961 -0.68945503 0.48219877
vn -0.7180002 -0.337807 0.6085739
vn -0.7181531 -0.33700505 0.608838
vn -0.7019177 -0.021854943 0.7119227
vn -0.7002531 -0.016853128 0.7136957
vn -0.57139367 0.19523992 0.79711396
vn -0.5669243 0.19946462 0.79925627
vn -0.41045195 0.29560122 0.8626408
vn -0.40647635 0.29675436 0.864126
vn -0.28384668 0.30925128 0.9076314
vn -0.282803 0.30906674 0.90801996
vn -0.21880503 0.28839755 0.93217546
vn -0.21942179 0.28884625 0.9318916
vn -0.20613106 0.28313327 0.9366672
vn -0.20580783 0.28251857 0.93692386
vn -0.21462277 0.3186578 0.92325205
vn -0.21469124 0.31903902 0.9231044
vn -0.20374045 0.40322077 0.89213383
vn -0.20500608 0.3990998 0.89369565
vn -0.14648905 0.509048 0.848181
vn -0.1464621 0.50908357 0.8481644
vn -0.030995967 0.6134233 0.7891459
vn -0.026447976 0.6163786 0.7870056
vn 0.15190904 0.6811181 0.7162415
vn 0.14759853 0.6804547 0.7177717
vn 0.36385137 0.67740375 0.639325
vn 0.36303738 0.6775493 0.6396333
vn 0.58093673 0.59761775 0.55259883
vn 0.58249474 0.5967212 0.5519273
vn 0.77300775 0.43975317 0.45724845
vn 0.77526164 0.43716136 0.4559159
vn 0.9094359 0.2102627 0.35877004
vn 0.9073703 0.21570903 0.3607611
vn 0.9469416 0.084777646 0.31002322
vn 0.9469416 0.084777646 0.31002322
vn -0.14310047 -0.11994422 -0.9824132
vn -0.14385036 -0.12114304 -0.9821566
vn -0.12815854 -0.09610371 -0.9870863
vn -0.12815852 -0.096103705 -0.9870863
vn -0.20464101 -0.16149339 -0.9654232
vn -0.20471627 -0.16151996 -0.9654028
vn -0.32568136 -0.1572466 -0.9323117
vn -0.32835233 -0.15651064 -0.9314983
vn -0.47203803 -0.053901464 -0.87992877
vn -0.4791587 -0.045139708 -0.8765668
vn -0.57010585 0.1673426 -0.80434805
vn -0.5705598 0.16999586 -0.80346924
vn -0.54290146 0.44775772 -0.7104724
vn -0.5436009 0.44577888 -0.7111816
vn -0.3661221 0.7099731 -0.60157526
vn -0.3687874 0.70753664 -0.60281646
vn -0.06775935 0.873453 -0.48217052
vn -0.06971556 0.87291044 -0.48287383
vn 0.28595585 0.8894691 -0.35647446
vn 0.2870587 0.88927025 -0.356084
vn 0.61764985 0.7526386 -0.2281311
vn 0.62064093 0.75056106 -0.2268546
vn 0.8686688 0.48596105 -0.09620998
vn 0.8706026 0.48275167 -0.09487869
vn 0.98830914 0.14862405 0.033999372
vn 0.98857844 0.14665575 0.03470816
vn 0.9675528 -0.19439612 0.16140594
vn 0.9676971 -0.19385003 0.16119686
vn 0.82670337 -0.48663533 0.2823961
vn 0.8256792 -0.48800707 0.283025
vn 0.6051196 -0.6925774 0.39264086
vn 0.5999088 -0.6958739 0.39480248
vn 0.33797368 -0.79796183 0.4990298
vn 0.3403382 -0.7975407 0.49809515
vn 0.08938334 -0.7996139 0.593825
vn 0.088614784 -0.79948384 0.5941153
vn -0.11878311 -0.72747695 0.6757721
vn -0.121770166 -0.72579515 0.6770476
vn -0.27094498 -0.60898846 0.7454675
vn -0.2745232 -0.6050796 0.7473391
vn -0.3579843 -0.46655503 0.80880994
vn -0.35607478 -0.47227377 0.8063301
vn -0.37895656 -0.39898825 0.8349852
vn -0.37895662 -0.39898825 0.8349852
g Plane01_0
f 3/3/3 2/2/2 1/1/1
f 4/4/4 3/3/3 1/1/1
f 1/1/1 2/2/2 5/5/5
f 2/2/2 6/6/6 5/5/5
f 5/5/5 6/6/6 7/7/7
f 6/6/6 8/8/8 7/7/7
f 7/7/7 8/8/8 9/9/9
f 8/8/8 10/10/10 9/9/9
f 9/9/9 10/10/10 11/11/11
f 10/10/10 12/12/12 11/11/11
f 11/11/11 12/12/12 13/13/13
f 12/12/12 14/14/14 13/13/13
f 13/13/13 14/14/14 15/15/15
f 14/14/14 16/16/16 15/15/15
f 15/15/15 16/16/16 17/17/17
f 16/16/16 18/18/18 17/17/17
f 17/17/17 18/18/18 19/19/19
f 18/18/18 20/20/20 19/19/19
f 19/19/19 20/20/20 21/21/21
f 20/20/20 22/22/22 21/21/21
f 21/21/21 22/22/22 23/23/23
f 22/22/22 24/24/24 23/23/23
f 23/23/23 24/24/24 25/25/25
f 24/24/24 26/26/26 25/25/25
f 25/25/25 26/26/26 27/27/27
f 26/26/26 28/28/28 27/27/27
f 27/27/27 28/28/28 29/29/29
f 28/28/28 30/30/30 29/29/29
f 29/29/29 30/30/30 31/31/31
f 30/30/30 32/32/32 31/31/31
f 31/31/31 32/32/32 33/33/33
f 32/32/32 34/34/34 33/33/33
f 33/33/33 34/34/34 35/35/35
f 34/34/34 36/36/36 35/35/35
f 35/35/35 36/36/36 37/37/37
f 36/36/36 38/38/38 37/37/37
f 37/37/37 38/38/38 39/39/39
f 38/38/38 40/40/40 39/39/39
f 39/39/39 40/40/40 41/41/41
f 40/40/40 42/42/42 41/41/41
f 41/41/41 42/42/42 43/43/43
f 42/42/42 44/44/44 43/43/43
f 47/47/47 46/46/46 45/45/45
f 48/48/48 47/47/47 45/45/45
f 45/45/45 46/46/46 49/49/49
f 46/46/46 50/50/50 49/49/49
f 49/49/49 50/50/50 51/51/51
f 50/50/50 52/52/52 51/51/51
f 51/51/51 52/52/52 53/53/53
f 52/52/52 54/54/54 53/53/53
f 53/53/53 54/54/54 55/55/55
f 54/54/54 56/56/56 55/55/55
f 55/55/55 56/56/56 57/57/57
f 56/56/56 58/58/58 57/57/57
f 57/57/57 58/58/58 59/59/59
f 58/58/58 60/60/60 59/59/59
f 59/59/59 60/60/60 61/61/61
f 60/60/60 62/62/62 61/61/61
f 61/61/61 62/62/62 63/63/63
f 62/62/62 64/64/64 63/63/63
f 63/63/63 64/64/64 65/65/65
f 64/64/64 66/66/66 65/65/65
f 65/65/65 66/66/66 67/67/67
f 66/66/66 68/68/68 67/67/67
f 67/67/67 68/68/68 69/69/69
f 68/68/68 70/70/70 69/69/69
f 69/69/69 70/70/70 71/71/71
f 70/70/70 72/72/72 71/71/71
f 71/71/71 72/72/72 73/73/73
f 72/72/72 74/74/74 73/73/73
f 73/73/73 74/74/74 75/75/75
f 74/74/74 76/76/76 75/75/75
f 75/75/75 76/76/76 77/77/77
f 76/76/76 78/78/78 77/77/77
f 77/77/77 78/78/78 79/79/79
f 78/78/78 80/80/80 79/79/79
f 79/79/79 80/80/80 81/81/81
f 80/80/80 82/82/82 81/81/81
f 81/81/81 82/82/82 83/83/83
f 82/82/82 84/84/84 83/83/83
f 83/83/83 84/84/84 85/85/85
f 84/84/84 86/86/86 85/85/85
f 85/85/85 86/86/86 87/87/87
f 86/86/86 88/88/88 87/87/87
