g Plane07
v 0.46695465 0.054315995 -0.10653442
v 0.5012995 0.07438994 0.13697632
v 0.19205795 -0.05732451 0.1135733
v 0.16240433 -0.06358116 -0.023611754
v 0.16182846 -0.055279896 0.2253775
v 0.41382408 0.09567276 0.39041808
v 0.061893158 -0.052381147 0.32824433
v 0.24151656 0.11365991 0.5599603
v -0.052440796 -0.05111708 0.3710791
v -0.0058044433 0.13143098 0.6504144
v -0.19994949 -0.048945613 0.3695816
v -0.24385254 0.14689231 0.6402228
v -0.33891678 -0.046996344 0.31494445
v -0.46246183 0.16143452 0.5490814
v -0.4532463 -0.04519083 0.2160089
v -0.6376739 0.17516391 0.39195526
v -0.53230864 -0.043466967 0.085030824
v -0.75373197 0.18816608 0.18916808
v -0.5708998 -0.041774537 -0.064900205
v -0.8034093 0.20050982 -0.037249144
v -0.5682063 -0.040072534 -0.22187652
v -0.786961 0.21225032 -0.26666838
v -0.515952 -0.037781782 -0.3903076
v -0.7157452 0.22286487 -0.4656247
v -0.42873627 -0.036052104 -0.52478695
v -0.58593655 0.23355147 -0.6517865
v -0.31287962 -0.034225006 -0.63931364
v -0.41612044 0.24374576 -0.79931515
v -0.14650345 -0.030393265 -0.74009246
v -0.24681304 0.25159484 -0.8948425
vt 0 1
vt 0.071428575 1
vt 0.071428575 0
vt 0 0
vt 0.14285715 0
vt 0.14285715 1
vt 0.21428573 0
vt 0.21428573 1
vt 0.2857143 0
vt 0.2857143 1
vt 0.35714287 0
vt 0.35714287 1
vt 0.42857143 0
vt 0.42857143 1
vt 0.5 0
vt 0.5 1
vt 0.5714286 0
vt 0.5714286 1
vt 0.6428572 0
vt 0.6428572 1
vt 0.7142858 0
vt 0.7142858 1
vt 0.7857144 0
vt 0.7857144 1
vt 0.857143 0
vt 0.857143 1
vt 0.9285716 0
vt 0.9285716 1
vt 1.0000001 0
vt 1.0000001 1
vn -0.37677264 0.9263054 -0.000728406
vn -0.386218 0.91764194 -0.09364297
vn -0.38588953 0.91816825 -0.089756854
vn -0.3767726 0.9263054 -0.000728406
vn -0.35142624 0.89474905 -0.2755428
vn -0.34820756 0.8938878 -0.28234044
vn -0.2226535 0.866355 -0.44705072
vn -0.22816175 0.86744845 -0.44212598
vn -0.04596403 0.8389053 -0.5423331
vn -0.04323871 0.83858156 -0.5430575
vn 0.15959239 0.8124726 -0.56073046
vn 0.15782939 0.8127176 -0.56087434
vn 0.3591323 0.78325987 -0.5074721
vn 0.35549784 0.7838248 -0.50915617
vn 0.528934 0.75355947 -0.39035505
vn 0.52596164 0.7541507 -0.3932188
vn 0.6517538 0.72354037 -0.2273902
vn 0.65062296 0.72389185 -0.22950019
vn 0.71985894 0.6930154 -0.039149255
vn 0.72002596 0.6928875 -0.038333572
vn 0.7304635 0.66388386 0.16025372
vn 0.7300039 0.66324764 0.16491482
vn 0.68372136 0.6311702 0.36626405
vn 0.6854211 0.6320346 0.36156616
vn 0.59467155 0.5965397 0.5389862
vn 0.594254 0.5964133 0.5395863
vn 0.47627747 0.56918526 0.6702148
vn 0.47110862 0.5683237 0.674585
vn 0.40528607 0.5554594 0.72609097
vn 0.40528607 0.5554593 0.72609097
g Plane07_0
f 3/3/3 2/2/2 1/1/1
f 4/4/4 3/3/3 1/1/1
f 3/3/3 5/5/5 2/2/2
f 5/5/5 6/6/6 2/2/2
f 5/5/5 7/7/7 6/6/6
f 7/7/7 8/8/8 6/6/6
f 7/7/7 9/9/9 8/8/8
f 9/9/9 10/10/10 8/8/8
f 9/9/9 11/11/11 10/10/10
f 11/11/11 12/12/12 10/10/10
f 11/11/11 13/13/13 12/12/12
f 13/13/13 14/14/14 12/12/12
f 13/13/13 15/15/15 14/14/14
f 15/15/15 16/16/16 14/14/14
f 15/15/15 17/17/17 16/16/16
f 17/17/17 18/18/18 16/16/16
f 17/17/17 19/19/19 18/18/18
f 19/19/19 20/20/20 18/18/18
f 19/19/19 21/21/21 20/20/20
f 21/21/21 22/22/22 20/20/20
f 21/21/21 23/23/23 22/22/22
f 23/23/23 24/24/24 22/22/22
f 23/23/23 25/25/25 24/24/24
f 25/25/25 26/26/26 24/24/24
f 25/25/25 27/27/27 26/26/26
f 27/27/27 28/28/28 26/26/26
f 27/27/27 29/29/29 28/28/28
f 29/29/29 30/30/30 28/28/28
