g Plane009
v 1.9102983 -0.7763083 0.17676678
v 1.0070877 0.048511066 -0.007329674
v 2.0481746 0.010586934 0.0010055763
v 0.93028426 -0.4313439 0.099686004
v 1.4345827 -1.5099653 0.36647558
v 0.71367794 -0.7792366 0.18842725
v 0.7715109 -1.9522909 0.53629065
v 0.30742332 -1.051913 0.2927504
v -0.08132394 -2.1164145 0.71879315
v -0.10281769 -1.1313488 0.38033655
v -0.85590005 -1.9546748 0.8822613
v -0.58926475 -1.0300652 0.4830476
v -1.5656438 -1.4744848 1.0569417
v -0.9483907 -0.7903314 0.5708325
v -1.9981027 -0.8230319 1.2137926
v -1.2322533 -0.36895803 0.67281103
v -2.1725295 -0.065245636 1.3676639
v -1.3395263 0.13358293 0.77441674
v -2.0399494 0.75685203 1.5303198
v -1.2577181 0.5858275 0.86381114
v -1.6532685 1.4153498 1.6774133
v -0.9905988 1.0417218 0.9656264
v -1.067563 1.8964474 1.8215265
v -0.57190645 1.375882 1.0674009
v -0.3067111 2.1456614 1.9718907
v -0.10129016 1.526119 1.1598939
v 0.433558 2.111623 2.1092696
v 0.4517001 1.5049629 1.262509
v 1.1121978 1.8327094 2.24374
v 0.9700667 1.2909418 1.3653008
v 1.6528064 1.3471 2.3753378
v 1.3901459 0.906999 1.4683154
v 1.9974061 0.71509606 2.5041025
v 1.6599779 0.39581808 1.5715934
v 2.1063855 -0.01733061 2.6350696
v 1.7392542 -0.15675014 1.6701102
v 1.9716011 -0.70421994 2.7575095
v 1.6282341 -0.7445414 1.7747364
v 1.6256127 -1.3031174 2.8772717
v 1.3270056 -1.2705812 1.8797023
v 1.1114908 -1.7534077 2.9944112
v 0.8654553 -1.6761713 1.98502
v 0.48800915 -2.0128074 3.1089854
v 0.29048476 -1.9156303 2.0906975
v -0.17746443 -2.0607386 3.2210538
v -0.33920228 -1.9608109 2.1967373
v -0.8211371 -1.9247674 3.330171
v -0.971261 -1.826828 2.3038967
v 1.4215188 -0.48691455 0.6458409
v 1.5276312 -0.08227055 -0.511924
v 1.5276312 0.14136854 0.5055999
v 1.4190638 -0.7207377 -0.3693881
v 1.0913417 -1.0053866 0.7791141
v 1.056919 -1.2838153 -0.22421126
v 0.5828723 -1.3458346 0.9095346
v 0.49606195 -1.6583693 -0.08049349
v 0.015590079 -1.4561726 1.0308394
v -0.19973171 -1.791591 0.06829035
v -0.560348 -1.3363293 1.1524136
v -0.8848169 -1.648411 0.21289538
v -1.0124022 -1.0339155 1.2631142
v -1.5016323 -1.2309006 0.36466005
v -1.3282369 -0.5634497 1.3768314
v -1.9021192 -0.6285403 0.5097722
v -1.4472419 -0.017219122 1.487397
v -2.0648139 0.085556425 0.6546837
v -1.3605957 0.4772855 1.5851429
v -1.937072 0.86539406 0.8089881
v -1.0877016 0.9434609 1.6892289
v -1.5561657 1.5136108 0.95381075
v -0.67030025 1.2768363 1.790722
v -0.9691692 1.9954933 1.0982056
v -0.2253095 1.4195225 1.8781842
v -0.18269175 2.2522578 1.2536004
v 0.29375494 1.4010059 1.9744998
v 0.59150314 2.2155802 1.3972788
v 0.76898086 1.2048062 2.068742
v 1.3132837 1.9188448 1.5402988
v 1.1441472 0.859214 2.1610534
v 1.898805 1.394885 1.6826
v 1.3768764 0.40873677 2.2515721
v 2.2805076 0.7021774 1.8241235
v 1.437077 -0.01728123 2.327318
v 2.4085627 -0.15679951 1.9778618
v 1.3498632 -0.5080939 2.4144917
v 2.249972 -0.94066745 2.117754
v 1.1071072 -0.9401628 2.5003092
v 1.8455112 -1.633536 2.2566648
v 0.73830277 -1.2679123 2.584888
v 1.2386434 -2.1616669 2.3945434
v 0.2849286 -1.4584839 2.66834
v 0.49356535 -2.4699538 2.531343
v -0.20449 -1.4943548 2.7507734
v -0.3121767 -2.5271945 2.6670177
v -0.76366365 -1.3728483 2.845644
v -1.0287346 -2.378747 2.7884238
vt 0.04347826 1
vt 0 0
vt 0 1
vt 0.04347826 0
vt 0.08695652 1
vt 0.08695652 0
vt 0.13043478 1
vt 0.13043478 0
vt 0.17391305 1
vt 0.17391305 0
vt 0.21739131 1
vt 0.21739131 0
vt 0.26086956 1
vt 0.26086956 0
vt 0.3043478 1
vt 0.3043478 0
vt 0.34782606 1
vt 0.34782606 0
vt 0.3913043 1
vt 0.3913043 0
vt 0.43478256 1
vt 0.43478256 0
vt 0.47826082 1
vt 0.47826082 0
vt 0.52173907 1
vt 0.52173907 0
vt 0.5652173 1
vt 0.5652173 0
vt 0.60869557 1
vt 0.60869557 0
vt 0.6521738 1
vt 0.6521738 0
vt 0.69565207 1
vt 0.69565207 0
vt 0.7391303 1
vt 0.7391303 0
vt 0.78260857 1
vt 0.78260857 0
vt 0.8260868 1
vt 0.8260868 0
vt 0.86956507 1
vt 0.86956507 0
vt 0.9130433 1
vt 0.9130433 0
vt 0.9565216 1
vt 0.9565216 0
vt 0.9999998 1
vt 0.9999998 0
vt 0.04347826 1
vt 0 0
vt 0 1
vt 0.04347826 0
vt 0.08695652 1
vt 0.08695652 0
vt 0.13043478 1
vt 0.13043478 0
vt 0.17391305 1
vt 0.17391305 0
vt 0.21739131 1
vt 0.21739131 0
vt 0.26086956 1
vt 0.26086956 0
vt 0.3043478 1
vt 0.3043478 0
vt 0.34782606 1
vt 0.34782606 0
vt 0.3913043 1
vt 0.3913043 0
vt 0.43478256 1
vt 0.43478256 0
vt 0.47826082 1
vt 0.47826082 0
vt 0.52173907 1
vt 0.52173907 0
vt 0.5652173 1
vt 0.5652173 0
vt 0.60869557 1
vt 0.60869557 0
vt 0.6521738 1
vt 0.6521738 0
vt 0.69565207 1
vt 0.69565207 0
vt 0.7391303 1
vt 0.7391303 0
vt 0.78260857 1
vt 0.78260857 0
vt 0.8260868 1
vt 0.8260868 0
vt 0.86956507 1
vt 0.86956507 0
vt 0.9130433 1
vt 0.9130433 0
vt 0.9565216 1
vt 0.9565216 0
vt 0.9999998 1
vt 0.9999998 0
vn 0.0048397505 0.23098311 0.97294575
vn -2.6992668E-05 0.21780796 0.9759916
vn 0.00012621592 0.21796775 0.97595596
vn 0.0040302654 0.23074086 0.9730069
vn 0.03232666 0.26609692 0.9634041
vn 0.029516704 0.2641463 0.96403086
vn 0.09495848 0.30516133 0.9475544
vn 0.09627705 0.3060405 0.9471378
vn 0.2004539 0.32214284 0.9252255
vn 0.19692834 0.3224395 0.92587906
vn 0.32693338 0.29355517 0.8982983
vn 0.32889563 0.29355028 0.8975833
vn 0.45860955 0.20061335 0.86569715
vn 0.45418212 0.2070073 0.8665256
vn 0.553384 0.055485807 0.831076
vn 0.5530676 0.05320508 0.83143574
vn 0.59739065 -0.13665725 0.790221
vn 0.5948946 -0.15089071 0.7895141
vn 0.55927336 -0.36107063 0.7462179
vn 0.55771595 -0.36159506 0.7471292
vn 0.44176826 -0.55658543 0.70360035
vn 0.43787923 -0.5588115 0.7042666
vn 0.2499467 -0.71367604 0.65436476
vn 0.23849134 -0.7178762 0.65404564
vn -0.010572383 -0.79681873 0.6041258
vn -0.0052677686 -0.7964655 0.604661
vn -0.2797561 -0.7826187 0.55609757
vn -0.2762846 -0.78388166 0.5560542
vn -0.5354647 -0.67753863 0.5042013
vn -0.5383466 -0.67459196 0.50508285
vn -0.74801373 -0.48674905 0.4511661
vn -0.7527492 -0.4778047 0.45284805
vn -0.8905224 -0.22359951 0.39619818
vn -0.89286053 -0.21254484 0.39701974
vn -0.93555164 0.08565543 0.34264582
vn -0.93589544 0.08074973 0.34289828
vn -0.8760965 0.38388243 0.29170078
vn -0.87898624 0.37792033 0.29079095
vn -0.7231304 0.6482867 0.23834157
vn -0.7257046 0.6455535 0.23793606
vn -0.491559 0.8509128 0.1852488
vn -0.4932122 0.84997034 0.18518119
vn -0.20643836 0.969429 0.1326299
vn -0.20727518 0.9692327 0.13275924
vn 0.08237888 0.9930702 0.08381718
vn 0.08198413 0.9930807 0.08408014
vn 0.21643683 0.97438645 0.061042912
vn 0.21690789 0.97426885 0.06124695
vn -0.9362043 0.3429288 -0.07694951
vn -0.9865702 0.1596242 -0.034632485
vn -0.9866851 0.15885063 -0.03491339
vn -0.93617 0.34325665 -0.0758999
vn -0.7296938 0.6646991 -0.16038117
vn -0.72805977 0.6666338 -0.15977606
vn -0.41562974 0.8771068 -0.24069797
vn -0.41735923 0.8765912 -0.23958136
vn -0.06150127 0.9465231 -0.3167202
vn -0.0585213 0.94673735 -0.31664428
vn 0.2823404 0.8769111 -0.38898692
vn 0.28090215 0.8779505 -0.3876815
vn 0.55736125 0.6933433 -0.4567531
vn 0.5628772 0.68891484 -0.45668995
vn 0.73827845 0.42747137 -0.5217405
vn 0.7365651 0.43061402 -0.5215778
vn 0.8050462 0.12867177 -0.5790891
vn 0.8024053 0.14342895 -0.5792875
vn 0.76054275 -0.14261742 -0.6334311
vn 0.7593605 -0.14239912 -0.63489693
vn 0.62729627 -0.36881316 -0.68591267
vn 0.6302196 -0.363845 -0.68588626
vn 0.4372573 -0.52482224 -0.7303202
vn 0.44673952 -0.5169533 -0.73019385
vn 0.23292038 -0.5918465 -0.7716643
vn 0.22671302 -0.59278876 -0.7727889
vn 0.028030522 -0.5834226 -0.81168485
vn 0.025246622 -0.5839999 -0.811361
vn -0.14480819 -0.51509076 -0.8448148
vn -0.13989043 -0.51669896 -0.84466136
vn -0.26935217 -0.40426382 -0.8740825
vn -0.25978142 -0.41073173 -0.873964
vn -0.33861545 -0.27647784 -0.8993885
vn -0.33177122 -0.28590462 -0.8989918
vn -0.35529992 -0.1607025 -0.9208348
vn -0.3552885 -0.15485944 -0.9218397
vn -0.33501658 -0.05622055 -0.9405334
vn -0.33498153 -0.049725864 -0.9409116
vn -0.29325536 0.022002013 -0.95578104
vn -0.29215673 0.025395563 -0.9560332
vn -0.24179606 0.070141576 -0.96778864
vn -0.24083577 0.07150274 -0.96792847
vn -0.19385561 0.09208055 -0.9766991
vn -0.19338593 0.09245109 -0.9767572
vn -0.159419 0.09623513 -0.98250926
vn -0.15926178 0.09614691 -0.9825433
vn -0.14670011 0.09498388 -0.9846102
vn -0.14717597 0.09478967 -0.9845578
g Plane009_0
f 3/3/3 2/2/2 1/1/1
f 4/4/4 1/1/1 2/2/2
f 1/1/1 4/4/4 5/5/5
f 6/6/6 5/5/5 4/4/4
f 5/5/5 6/6/6 7/7/7
f 8/8/8 7/7/7 6/6/6
f 7/7/7 8/8/8 9/9/9
f 10/10/10 9/9/9 8/8/8
f 9/9/9 10/10/10 11/11/11
f 12/12/12 11/11/11 10/10/10
f 11/11/11 12/12/12 13/13/13
f 14/14/14 13/13/13 12/12/12
f 13/13/13 14/14/14 15/15/15
f 16/16/16 15/15/15 14/14/14
f 15/15/15 16/16/16 17/17/17
f 18/18/18 17/17/17 16/16/16
f 17/17/17 18/18/18 19/19/19
f 20/20/20 19/19/19 18/18/18
f 19/19/19 20/20/20 21/21/21
f 22/22/22 21/21/21 20/20/20
f 21/21/21 22/22/22 23/23/23
f 24/24/24 23/23/23 22/22/22
f 23/23/23 24/24/24 25/25/25
f 26/26/26 25/25/25 24/24/24
f 25/25/25 26/26/26 27/27/27
f 28/28/28 27/27/27 26/26/26
f 27/27/27 28/28/28 29/29/29
f 30/30/30 29/29/29 28/28/28
f 29/29/29 30/30/30 31/31/31
f 32/32/32 31/31/31 30/30/30
f 31/31/31 32/32/32 33/33/33
f 34/34/34 33/33/33 32/32/32
f 33/33/33 34/34/34 35/35/35
f 36/36/36 35/35/35 34/34/34
f 35/35/35 36/36/36 37/37/37
f 38/38/38 37/37/37 36/36/36
f 37/37/37 38/38/38 39/39/39
f 40/40/40 39/39/39 38/38/38
f 39/39/39 40/40/40 41/41/41
f 42/42/42 41/41/41 40/40/40
f 41/41/41 42/42/42 43/43/43
f 44/44/44 43/43/43 42/42/42
f 43/43/43 44/44/44 45/45/45
f 46/46/46 45/45/45 44/44/44
f 45/45/45 46/46/46 47/47/47
f 48/48/48 47/47/47 46/46/46
f 51/51/51 50/50/50 49/49/49
f 52/52/52 49/49/49 50/50/50
f 49/49/49 52/52/52 53/53/53
f 54/54/54 53/53/53 52/52/52
f 53/53/53 54/54/54 55/55/55
f 56/56/56 55/55/55 54/54/54
f 55/55/55 56/56/56 57/57/57
f 58/58/58 57/57/57 56/56/56
f 57/57/57 58/58/58 59/59/59
f 60/60/60 59/59/59 58/58/58
f 59/59/59 60/60/60 61/61/61
f 62/62/62 61/61/61 60/60/60
f 61/61/61 62/62/62 63/63/63
f 64/64/64 63/63/63 62/62/62
f 63/63/63 64/64/64 65/65/65
f 66/66/66 65/65/65 64/64/64
f 65/65/65 66/66/66 67/67/67
f 68/68/68 67/67/67 66/66/66
f 67/67/67 68/68/68 69/69/69
f 70/70/70 69/69/69 68/68/68
f 69/69/69 70/70/70 71/71/71
f 72/72/72 71/71/71 70/70/70
f 71/71/71 72/72/72 73/73/73
f 74/74/74 73/73/73 72/72/72
f 73/73/73 74/74/74 75/75/75
f 76/76/76 75/75/75 74/74/74
f 75/75/75 76/76/76 77/77/77
f 78/78/78 77/77/77 76/76/76
f 77/77/77 78/78/78 79/79/79
f 80/80/80 79/79/79 78/78/78
f 79/79/79 80/80/80 81/81/81
f 82/82/82 81/81/81 80/80/80
f 81/81/81 82/82/82 83/83/83
f 84/84/84 83/83/83 82/82/82
f 83/83/83 84/84/84 85/85/85
f 86/86/86 85/85/85 84/84/84
f 85/85/85 86/86/86 87/87/87
f 88/88/88 87/87/87 86/86/86
f 87/87/87 88/88/88 89/89/89
f 90/90/90 89/89/89 88/88/88
f 89/89/89 90/90/90 91/91/91
f 92/92/92 91/91/91 90/90/90
f 91/91/91 92/92/92 93/93/93
f 94/94/94 93/93/93 92/92/92
f 93/93/93 94/94/94 95/95/95
f 96/96/96 95/95/95 94/94/94
