g Plane011
v -3.733037 2.940116 157.81366
v 1.2733595 3.9385712 143.57277
v -7.723151 -0.36415967 151.25027
v 5.3329606 7.282466 150.07318
v 12.510604 13.982679 142.00647
v 8.358761 10.549299 135.61185
v 13.53276 18.63932 127.60657
v 17.8038 22.255518 133.81932
v 21.54881 31.303654 125.44563
v 17.14333 27.372242 119.52508
v 19.500103 36.139713 111.19682
v 24.038769 40.56015 116.653694
v 20.758024 44.41669 102.40888
v 25.399256 49.540497 107.11237
v 25.5806 57.577766 96.40193
v 20.932018 51.55641 92.93045
v 24.417364 63.527863 84.21344
v 19.960148 56.639793 82.59949
v 17.876871 58.682716 71.594864
v 21.906054 65.981804 70.95755
v 18.50992 64.45758 57.8413
v 15.005798 57.359653 60.535297
v 11.834315 53.183666 50.042656
v 14.867138 59.700596 45.77079
v 8.746234 46.884594 40.44063
v 11.399421 52.64039 34.986412
v 8.296538 44.02179 25.426788
v 5.918202 39.07016 31.730907
v 5.5930576 34.448364 16.925495
v 3.3642333 30.122755 23.725391
v 1.3395458 19.871675 16.54075
v 3.5683668 24.197277 9.7408495
v 1.8861905 13.650869 2.707409
v -0.3121869 9.513923 9.633452
v 0.540309 3.0183523 -4.0706224
v -1.6580615 -1.1185952 2.855418
v -7.7252097 4.910071 153.92258
v 5.878628 2.3182561 146.90814
v -3.730991 -2.3341012 155.14136
v 0.7277131 8.902797 146.73778
v 7.4195604 15.131796 139.22809
v 13.449821 9.400205 138.39021
v 18.944267 17.981688 129.89603
v 12.392303 22.913158 131.52985
v 15.940027 31.498753 123.584946
v 22.752121 27.17717 121.38573
v 25.228075 36.38223 112.64257
v 18.31081 40.317657 115.20793
v 26.549303 45.093426 103.38953
v 19.60797 48.86379 106.131714
v 19.785788 56.469753 96.01329
v 26.72683 52.664448 93.319084
v 18.701149 62.06383 84.58783
v 25.676338 58.10386 82.22508
v 23.434801 60.29874 70.38803
v 16.34811 64.36578 72.16436
v 13.127854 62.908936 59.73699
v 20.387856 58.908295 58.639587
v 17.078768 54.562695 47.686306
v 9.622671 58.32157 48.127144
v 13.899569 48.08087 37.80042
v 6.2460904 51.444103 37.626606
v 3.1943731 42.975227 28.22524
v 11.020353 40.116707 28.932463
v 0.50476134 33.45982 19.769882
v 8.452537 31.111284 20.880983
v 6.427846 20.8602 13.696338
v -1.519926 23.208729 12.585243
v -3.2222674 12.537467 5.4683366
v 4.796257 10.627315 6.8725314
v -4.5681353 1.9049481 -1.3097011
v 3.450396 -0.0052024266 0.09450713
vt 0 1
vt 0.08 0
vt 0 0
vt 0.08 1
vt 0.12 1
vt 0.12 0
vt 0.19999999 0
vt 0.19999999 1
vt 0.23999998 1
vt 0.23999998 0
vt 0.31999996 0
vt 0.31999996 1
vt 0.39999995 0
vt 0.39999995 1
vt 0.43999994 1
vt 0.43999994 0
vt 0.47999993 1
vt 0.47999993 0
vt 0.55999994 0
vt 0.55999994 1
vt 0.59999996 1
vt 0.59999996 0
vt 0.68 0
vt 0.68 1
vt 0.76000005 0
vt 0.76000005 1
vt 0.8000001 1
vt 0.8000001 0
vt 0.8400001 1
vt 0.8400001 0
vt 0.92000014 0
vt 0.92000014 1
vt 0.96000016 1
vt 0.96000016 0
vt 1.0000001 1
vt 1.0000001 0
vt 0 1
vt 0.08 0
vt 0 0
vt 0.08 1
vt 0.12 1
vt 0.12 0
vt 0.19999999 0
vt 0.19999999 1
vt 0.23999998 1
vt 0.23999998 0
vt 0.31999996 0
vt 0.31999996 1
vt 0.39999995 0
vt 0.39999995 1
vt 0.43999994 1
vt 0.43999994 0
vt 0.47999993 1
vt 0.47999993 0
vt 0.55999994 0
vt 0.55999994 1
vt 0.59999996 1
vt 0.59999996 0
vt 0.68 0
vt 0.68 1
vt 0.76000005 0
vt 0.76000005 1
vt 0.8000001 1
vt 0.8000001 0
vt 0.8400001 1
vt 0.8400001 0
vt 0.92000014 0
vt 0.92000014 1
vt 0.96000016 1
vt 0.96000016 0
vt 1.0000001 1
vt 1.0000001 0
vn 0.50967014 -0.85203946 0.119436875
vn 0.59101325 -0.80539936 0.045113996
vn 0.5094214 -0.852202 0.11933806
vn 0.5911827 -0.8052789 0.045043558
vn 0.7139693 -0.694247 -0.09093328
vn 0.7142226 -0.6939614 -0.091124505
vn 0.7821864 -0.59241444 -0.19294943
vn 0.78195626 -0.59287107 -0.1924795
vn 0.813364 -0.5207363 -0.25936994
vn 0.8134797 -0.5203493 -0.25978324
vn 0.82597697 -0.47678936 -0.30072236
vn 0.82594544 -0.47694778 -0.30055788
vn 0.82957596 -0.45703033 -0.32082257
vn 0.8296059 -0.45700794 -0.32077694
vn 0.83040833 -0.45886168 -0.31601894
vn 0.83029616 -0.45892274 -0.316225
vn 0.8349653 -0.47505683 -0.27776608
vn 0.8348526 -0.47506824 -0.27808514
vn 0.8489196 -0.48630834 -0.20697753
vn 0.8487114 -0.48658794 -0.20717452
vn 0.8704002 -0.47656482 -0.12365106
vn 0.87063783 -0.47638154 -0.12268002
vn 0.8935582 -0.4465655 -0.046184856
vn 0.8935742 -0.44645628 -0.046925303
vn 0.91382694 -0.40574434 0.017083151
vn 0.9141927 -0.4049057 0.017412148
vn 0.9299386 -0.3616928 0.066275515
vn 0.9290509 -0.36412373 0.065409
vn 0.94387525 -0.311259 0.11053224
vn 0.94310045 -0.31400365 0.109376386
vn 0.9530602 -0.267205 0.14239992
vn 0.95303494 -0.26733926 0.14231691
vn 0.9572638 -0.24098639 0.15991108
vn 0.9572519 -0.2410807 0.15984042
vn 0.9589646 -0.22844122 0.16793321
vn 0.9589647 -0.22844096 0.16793309
vn 0.4793119 0.3957648 0.7833456
vn 0.48521206 0.39977995 0.7776537
vn 0.47929722 0.39604062 0.78321517
vn 0.48487297 0.399433 0.7780434
vn 0.49808127 0.4126909 0.76262784
vn 0.49828735 0.41279405 0.7624375
vn 0.5134858 0.4377604 0.7380367
vn 0.5135 0.43771648 0.7380529
vn 0.5292892 0.47723183 0.7015003
vn 0.52928734 0.47737315 0.7014056
vn 0.5440757 0.5348615 0.64645547
vn 0.54400605 0.53448206 0.64682776
vn 0.5551868 0.6149311 0.56002444
vn 0.5551895 0.6143521 0.5606569
vn 0.55609554 0.71841794 0.4178917
vn 0.5559015 0.71894556 0.41724202
vn 0.5337036 0.82250506 0.19658586
vn 0.5334873 0.8228068 0.19590874
vn 0.4816052 0.8728521 -0.07864865
vn 0.48158965 0.87297016 -0.07742447
vn 0.41701806 0.8470482 -0.32955307
vn 0.41651335 0.84668183 -0.33112907
vn 0.36076635 0.77690804 -0.5160054
vn 0.36148813 0.7771902 -0.5150745
vn 0.32054955 0.69752645 -0.64086246
vn 0.3208516 0.6969979 -0.64128643
vn 0.29381022 0.624261 -0.7238603
vn 0.29331028 0.6263609 -0.72224724
vn 0.27445132 0.5547169 -0.7854717
vn 0.2742316 0.55723727 -0.78376245
vn 0.26538956 0.5114027 -0.8173345
vn 0.26540664 0.5115347 -0.81724626
vn 0.26357847 0.5001236 -0.8248653
vn 0.26359928 0.5002199 -0.82480025
vn 0.26291203 0.49475256 -0.8283099
vn 0.26291233 0.4947522 -0.82830995
g Plane011_0
f 3/3/3 2/2/2 1/1/1
f 4/4/4 1/1/1 2/2/2
f 4/4/4 2/2/2 5/5/5
f 6/6/6 5/5/5 2/2/2
f 6/6/6 7/7/7 5/5/5
f 8/8/8 5/5/5 7/7/7
f 8/8/8 7/7/7 9/9/9
f 10/10/10 9/9/9 7/7/7
f 10/10/10 11/11/11 9/9/9
f 12/12/12 9/9/9 11/11/11
f 11/11/11 13/13/13 12/12/12
f 14/14/14 12/12/12 13/13/13
f 14/14/14 13/13/13 15/15/15
f 16/16/16 15/15/15 13/13/13
f 15/15/15 16/16/16 17/17/17
f 18/18/18 17/17/17 16/16/16
f 18/18/18 19/19/19 17/17/17
f 20/20/20 17/17/17 19/19/19
f 20/20/20 19/19/19 21/21/21
f 22/22/22 21/21/21 19/19/19
f 22/22/22 23/23/23 21/21/21
f 24/24/24 21/21/21 23/23/23
f 23/23/23 25/25/25 24/24/24
f 26/26/26 24/24/24 25/25/25
f 26/26/26 25/25/25 27/27/27
f 28/28/28 27/27/27 25/25/25
f 27/27/27 28/28/28 29/29/29
f 30/30/30 29/29/29 28/28/28
f 30/30/30 31/31/31 29/29/29
f 32/32/32 29/29/29 31/31/31
f 32/32/32 31/31/31 33/33/33
f 34/34/34 33/33/33 31/31/31
f 33/33/33 34/34/34 35/35/35
f 36/36/36 35/35/35 34/34/34
f 39/39/39 38/38/38 37/37/37
f 40/40/40 37/37/37 38/38/38
f 40/40/40 38/38/38 41/41/41
f 42/42/42 41/41/41 38/38/38
f 42/42/42 43/43/43 41/41/41
f 44/44/44 41/41/41 43/43/43
f 44/44/44 43/43/43 45/45/45
f 46/46/46 45/45/45 43/43/43
f 46/46/46 47/47/47 45/45/45
f 48/48/48 45/45/45 47/47/47
f 47/47/47 49/49/49 48/48/48
f 50/50/50 48/48/48 49/49/49
f 50/50/50 49/49/49 51/51/51
f 52/52/52 51/51/51 49/49/49
f 51/51/51 52/52/52 53/53/53
f 54/54/54 53/53/53 52/52/52
f 54/54/54 55/55/55 53/53/53
f 56/56/56 53/53/53 55/55/55
f 56/56/56 55/55/55 57/57/57
f 58/58/58 57/57/57 55/55/55
f 58/58/58 59/59/59 57/57/57
f 60/60/60 57/57/57 59/59/59
f 59/59/59 61/61/61 60/60/60
f 62/62/62 60/60/60 61/61/61
f 62/62/62 61/61/61 63/63/63
f 64/64/64 63/63/63 61/61/61
f 63/63/63 64/64/64 65/65/65
f 66/66/66 65/65/65 64/64/64
f 66/66/66 67/67/67 65/65/65
f 68/68/68 65/65/65 67/67/67
f 68/68/68 67/67/67 69/69/69
f 70/70/70 69/69/69 67/67/67
f 69/69/69 70/70/70 71/71/71
f 72/72/72 71/71/71 70/70/70
